<?xml version="1.0" encoding="utf-8" standalone="no"?>
<!DOCTYPE svg PUBLIC "-//W3C//DTD SVG 1.1//EN"
  "http://www.w3.org/Graphics/SVG/1.1/DTD/svg11.dtd">
<svg xmlns:xlink="http://www.w3.org/1999/xlink" width="405pt" height="247.90496pt" viewBox="0 0 405 247.90496" xmlns="http://www.w3.org/2000/svg" version="1.1">
 <metadata>
  <rdf:RDF xmlns:dc="http://purl.org/dc/elements/1.1/" xmlns:cc="http://creativecommons.org/ns#" xmlns:rdf="http://www.w3.org/1999/02/22-rdf-syntax-ns#">
   <cc:Work>
    <dc:type rdf:resource="http://purl.org/dc/dcmitype/StillImage"/>
    <dc:date>2026-07-16T15:17:42.742785</dc:date>
    <dc:format>image/svg+xml</dc:format>
    <dc:creator>
     <cc:Agent>
      <dc:title>Matplotlib v3.11.0, https://matplotlib.org/</dc:title>
     </cc:Agent>
    </dc:creator>
   </cc:Work>
  </rdf:RDF>
 </metadata>
 <defs>
  <style type="text/css">*{stroke-linejoin: round; stroke-linecap: butt}</style>
 </defs>
 <g id="figure_1">
  <g id="patch_1">
   <path d="M 0 247.90496 
L 405 247.90496 
L 405 -0 
L 0 -0 
z
" style="fill: #ffffff"/>
  </g>
  <g id="axes_1">
   <g id="patch_2">
    <path d="M 15.012 226.07712 
L 389.988 226.07712 
L 389.988 21.17088 
L 15.012 21.17088 
L 15.012 226.07712 
z
" clip-path="url(#p525854118f)" style="fill: none; stroke: #5b6573; stroke-width: 1.1; stroke-linejoin: miter"/>
   </g>
   <g id="patch_3">
    <path d="M 29.8548 84.505536 
L 121.2552 84.505536 
Q 129.0672 84.505536 129.0672 79.848576 
L 129.0672 46.318464 
Q 129.0672 41.661504 121.2552 41.661504 
L 29.8548 41.661504 
Q 22.0428 41.661504 22.0428 46.318464 
L 22.0428 79.848576 
Q 22.0428 84.505536 29.8548 84.505536 
z
" clip-path="url(#p525854118f)" style="fill: #d9eaf7; stroke: #2f6690; stroke-linejoin: miter"/>
   </g>
   <g id="patch_4">
    <path d="M 158.7528 84.505536 
L 250.1532 84.505536 
Q 257.9652 84.505536 257.9652 79.848576 
L 257.9652 46.318464 
Q 257.9652 41.661504 250.1532 41.661504 
L 158.7528 41.661504 
Q 150.9408 41.661504 150.9408 46.318464 
L 150.9408 79.848576 
Q 150.9408 84.505536 158.7528 84.505536 
z
" clip-path="url(#p525854118f)" style="fill: #dcefe7; stroke: #2a7f62; stroke-linejoin: miter"/>
   </g>
   <g id="patch_5">
    <path d="M 283.7448 84.505536 
L 375.1452 84.505536 
Q 382.9572 84.505536 382.9572 79.848576 
L 382.9572 46.318464 
Q 382.9572 41.661504 375.1452 41.661504 
L 283.7448 41.661504 
Q 275.9328 41.661504 275.9328 46.318464 
L 275.9328 79.848576 
Q 275.9328 84.505536 283.7448 84.505536 
z
" clip-path="url(#p525854118f)" style="fill: #fbe8d3; stroke: #c56a1a; stroke-linejoin: miter"/>
   </g>
   <g id="patch_6">
    <path d="M 92.3508 154.359936 
L 191.5632 154.359936 
Q 199.3752 154.359936 199.3752 149.702976 
L 199.3752 116.172864 
Q 199.3752 111.515904 191.5632 111.515904 
L 92.3508 111.515904 
Q 84.5388 111.515904 84.5388 116.172864 
L 84.5388 149.702976 
Q 84.5388 154.359936 92.3508 154.359936 
z
" clip-path="url(#p525854118f)" style="fill: #eef1f4; stroke: #5b6573; stroke-linejoin: miter"/>
   </g>
   <g id="patch_7">
    <path d="M 229.0608 154.359936 
L 328.2732 154.359936 
Q 336.0852 154.359936 336.0852 149.702976 
L 336.0852 116.172864 
Q 336.0852 111.515904 328.2732 111.515904 
L 229.0608 111.515904 
Q 221.2488 111.515904 221.2488 116.172864 
L 221.2488 149.702976 
Q 221.2488 154.359936 229.0608 154.359936 
z
" clip-path="url(#p525854118f)" style="fill: #eef1f4; stroke: #5b6573; stroke-linejoin: miter"/>
   </g>
   <g id="patch_8">
    <path d="M 53.2908 214.900416 
L 156.4092 214.900416 
Q 164.2212 214.900416 164.2212 210.243456 
L 164.2212 181.370304 
Q 164.2212 176.713344 156.4092 176.713344 
L 53.2908 176.713344 
Q 45.4788 176.713344 45.4788 181.370304 
L 45.4788 210.243456 
Q 45.4788 214.900416 53.2908 214.900416 
z
" clip-path="url(#p525854118f)" style="fill: #f6dede; stroke: #a33a3a; stroke-linejoin: miter"/>
   </g>
   <g id="patch_9">
    <path d="M 236.8728 214.900416 
L 339.9912 214.900416 
Q 347.8032 214.900416 347.8032 210.243456 
L 347.8032 181.370304 
Q 347.8032 176.713344 339.9912 176.713344 
L 236.8728 176.713344 
Q 229.0608 176.713344 229.0608 181.370304 
L 229.0608 210.243456 
Q 229.0608 214.900416 236.8728 214.900416 
z
" clip-path="url(#p525854118f)" style="fill: #f6dede; stroke: #a33a3a; stroke-linejoin: miter"/>
   </g>
   <g id="patch_10">
    <path d="M 126.382588 63.08352 
Q 140.00391 63.08352 152.283591 63.08352 
" clip-path="url(#p525854118f)" style="fill: none; stroke: #2f6690; stroke-width: 1.2; stroke-linecap: round"/>
    <path d="M 148.283591 61.08352 
L 152.283591 63.08352 
L 148.283591 65.08352 
z
" clip-path="url(#p525854118f)" style="fill: #2f6690; stroke: #2f6690; stroke-width: 1.2; stroke-linecap: round"/>
   </g>
   <g id="patch_11">
    <path d="M 255.27725 63.08352 
Q 266.947846 63.08352 277.276802 63.08352 
" clip-path="url(#p525854118f)" style="fill: none; stroke: #c56a1a; stroke-width: 1.2; stroke-linecap: round"/>
    <path d="M 273.276802 61.08352 
L 277.276802 63.08352 
L 273.276802 65.08352 
z
" clip-path="url(#p525854118f)" style="fill: #c56a1a; stroke: #c56a1a; stroke-width: 1.2; stroke-linecap: round"/>
   </g>
   <g id="patch_12">
    <path d="M 189.316535 83.070303 
Q 173.205297 98.010444 158.077823 112.03833 
" clip-path="url(#p525854118f)" style="fill: none; stroke: #2f6690; stroke-width: 1.2; stroke-linecap: round"/>
    <path d="M 162.370749 110.785018 
L 158.077823 112.03833 
L 159.650929 107.852002 
z
" clip-path="url(#p525854118f)" style="fill: #2f6690; stroke: #2f6690; stroke-width: 1.2; stroke-linecap: round"/>
   </g>
   <g id="patch_13">
    <path d="M 227.401465 83.070303 
Q 243.512703 98.010444 258.640177 112.03833 
" clip-path="url(#p525854118f)" style="fill: none; stroke-dasharray: 4.44,1.92; stroke-dashoffset: 0; stroke: #2a7f62; stroke-width: 1.2; stroke-linecap: round"/>
    <path d="M 257.067071 107.852002 
L 258.640177 112.03833 
L 254.347251 110.785018 
z
" clip-path="url(#p525854118f)" style="fill: #2a7f62; stroke-dasharray: 4.44,1.92; stroke-dashoffset: 0; stroke: #2a7f62; stroke-width: 1.2; stroke-linecap: round"/>
   </g>
   <g id="patch_14">
    <path d="M 138.514456 152.897701 
Q 124.381732 165.535091 111.249125 177.278184 
" clip-path="url(#p525854118f)" style="fill: none; stroke: #2f6690; stroke-width: 1.2; stroke-linecap: round"/>
    <path d="M 115.564035 176.10279 
L 111.249125 177.278184 
L 112.897755 173.121019 
z
" clip-path="url(#p525854118f)" style="fill: #2f6690; stroke: #2f6690; stroke-width: 1.2; stroke-linecap: round"/>
   </g>
   <g id="patch_15">
    <path d="M 94.418031 177.976796 
Q 111.874908 157.663007 136.735946 152.253986 
" clip-path="url(#p525854118f)" style="fill: none; stroke: #c56a1a; stroke-width: 1.2; stroke-linecap: round"/>
    <path d="M 132.402193 151.150092 
L 136.735946 152.253986 
L 133.252579 155.058653 
z
" clip-path="url(#p525854118f)" style="fill: #c56a1a; stroke: #c56a1a; stroke-width: 1.2; stroke-linecap: round"/>
   </g>
   <g id="patch_16">
    <path d="M 161.531581 195.80688 
Q 196.641438 195.80688 230.409653 195.80688 
" clip-path="url(#p525854118f)" style="fill: none; stroke-dasharray: 4.44,1.92; stroke-dashoffset: 0; stroke: #2a7f62; stroke-width: 1.2; stroke-linecap: round"/>
    <path d="M 226.409653 193.80688 
L 230.409653 195.80688 
L 226.409653 197.80688 
z
" clip-path="url(#p525854118f)" style="fill: #2a7f62; stroke-dasharray: 4.44,1.92; stroke-dashoffset: 0; stroke: #2a7f62; stroke-width: 1.2; stroke-linecap: round"/>
   </g>
   <g id="patch_17">
    <path d="M 289.40707 149.821958 
Q 307.962548 116.63758 325.863242 84.624209 
" clip-path="url(#p525854118f)" style="fill: none; stroke-dasharray: 4.44,1.92; stroke-dashoffset: 0; stroke: #2a7f62; stroke-width: 1.2; stroke-linecap: round"/>
    <path d="M 322.165419 87.139384 
L 325.863242 84.624209 
L 325.656688 89.091573 
z
" clip-path="url(#p525854118f)" style="fill: #2a7f62; stroke-dasharray: 4.44,1.92; stroke-dashoffset: 0; stroke: #2a7f62; stroke-width: 1.2; stroke-linecap: round"/>
   </g>
   <g id="patch_18">
    <path d="M 329.860299 82.994696 
Q 311.867504 98.011134 294.904755 112.167916 
" clip-path="url(#p525854118f)" style="fill: none; stroke: #c56a1a; stroke-width: 1.2; stroke-linecap: round"/>
    <path d="M 299.257254 111.140418 
L 294.904755 112.167916 
L 296.694257 108.069418 
z
" clip-path="url(#p525854118f)" style="fill: #c56a1a; stroke: #c56a1a; stroke-width: 1.2; stroke-linecap: round"/>
   </g>
   <g id="line2d_1"/>
   <g id="line2d_2"/>
   <g id="line2d_3"/>
   <g id="text_1">
    <g id="patch_19">
     <path d="M 25.21 27.118536 
L 118.92 27.118536 
L 118.92 15.223224 
L 25.21 15.223224 
z
" style="fill: #ffffff"/>
    </g>
    <text style="font-weight: 700; font-size: 8px; font-family: 'Times New Roman', 'DejaVu Serif', serif; text-anchor: start; fill: #5b6573" x="26.73" y="23.871974" transform="rotate(-0 26.73 23.871974)">Ranh giới hệ thống HEMS</text>
   </g>
   <g id="text_2">
    <text style="font-weight: 700; font-size: 7.6px; font-family: 'Times New Roman', 'DejaVu Serif', serif; fill: #1f2933" transform="translate(44.226969 55.741626)">Ứng dụng di động /</text>
    <text style="font-weight: 700; font-size: 7.6px; font-family: 'Times New Roman', 'DejaVu Serif', serif; fill: #1f2933" transform="translate(54.017313 62.091077)">Web quản trị</text>
   </g>
   <g id="text_3">
    <text style="font-size: 6.7px; font-family: 'Times New Roman', 'DejaVu Serif', serif; fill: #1f2933" transform="translate(52.482398 69.312462)">phiên đăng nhập;</text>
    <text style="font-size: 6.7px; font-family: 'Times New Roman', 'DejaVu Serif', serif; fill: #1f2933" transform="translate(51.463266 75.708541)">trạng thái thao tác</text>
   </g>
   <g id="text_4">
    <text style="font-weight: 700; font-size: 7.6px; font-family: 'Times New Roman', 'DejaVu Serif', serif; text-anchor: middle; fill: #1f2933" x="204.453" y="59.345336" transform="rotate(-0 204.453 59.345336)">API biên</text>
   </g>
   <g id="text_5">
    <text style="font-size: 6.7px; font-family: 'Times New Roman', 'DejaVu Serif', serif; fill: #1f2933" transform="translate(174.450609 69.318744)">xác thực; home scope;</text>
    <text style="font-size: 6.7px; font-family: 'Times New Roman', 'DejaVu Serif', serif; fill: #1f2933" transform="translate(181.745234 75.708541)">RBAC; audit log</text>
   </g>
   <g id="text_6">
    <text style="font-weight: 700; font-size: 7.6px; font-family: 'Times New Roman', 'DejaVu Serif', serif; text-anchor: middle; fill: #1f2933" x="329.445" y="58.544367" transform="rotate(-0 329.445 58.544367)">Dịch vụ dự báo</text>
   </g>
   <g id="text_7">
    <text style="font-size: 6.7px; font-family: 'Times New Roman', 'DejaVu Serif', serif; fill: #1f2933" transform="translate(307.123531 70.136353)">kiểm tra artifact;</text>
    <text style="font-size: 6.7px; font-family: 'Times New Roman', 'DejaVu Serif', serif; fill: #1f2933" transform="translate(298.830187 76.367549)">dự báo trực tiếp 24 giờ</text>
   </g>
   <g id="text_8">
    <text style="font-weight: 700; font-size: 7.6px; font-family: 'Times New Roman', 'DejaVu Serif', serif; text-anchor: middle; fill: #1f2933" x="141.957" y="129.170642" transform="rotate(-0 141.957 129.170642)">PLC gateway đơn luồng</text>
   </g>
   <g id="text_9">
    <text style="font-size: 6.7px; font-family: 'Times New Roman', 'DejaVu Serif', serif; fill: #1f2933" transform="translate(120.697062 139.989183)">tuần tự hóa I/O;</text>
    <text style="font-size: 6.7px; font-family: 'Times New Roman', 'DejaVu Serif', serif; fill: #1f2933" transform="translate(119.254469 146.22823)">timeout phản hồi</text>
   </g>
   <g id="text_10">
    <text style="font-weight: 700; font-size: 7.6px; font-family: 'Times New Roman', 'DejaVu Serif', serif; text-anchor: middle; fill: #1f2933" x="278.667" y="128.445079" transform="rotate(-0 278.667 128.445079)">Kho dữ liệu</text>
   </g>
   <g id="text_11">
    <text style="font-size: 6.7px; font-family: 'Times New Roman', 'DejaVu Serif', serif; fill: #1f2933" transform="translate(246.015492 139.82587)">telemetry thật; cấu hình;</text>
    <text style="font-size: 6.7px; font-family: 'Times New Roman', 'DejaVu Serif', serif; fill: #1f2933" transform="translate(264.341563 145.562941)">fingerprint</text>
   </g>
   <g id="text_12">
    <text style="font-weight: 700; font-size: 7.6px; font-family: 'Times New Roman', 'DejaVu Serif', serif; text-anchor: middle; fill: #1f2933" x="104.85" y="192.78141" transform="rotate(-0 104.85 192.78141)">PLC Siemens S7-1200</text>
   </g>
   <g id="text_13">
    <text style="font-size: 6.7px; font-family: 'Times New Roman', 'DejaVu Serif', serif; fill: #1f2933" transform="translate(80.291883 201.057861)">command tag tách</text>
    <text style="font-size: 6.7px; font-family: 'Times New Roman', 'DejaVu Serif', serif; fill: #1f2933" transform="translate(92.288547 207.118416)">status tag</text>
   </g>
   <g id="text_14">
    <text style="font-weight: 700; font-size: 7.6px; font-family: 'Times New Roman', 'DejaVu Serif', serif; text-anchor: middle; fill: #1f2933" x="288.432" y="192.105723" transform="rotate(-0 288.432 192.105723)">MFM384 và tải điện</text>
   </g>
   <g id="text_15">
    <text style="font-size: 6.7px; font-family: 'Times New Roman', 'DejaVu Serif', serif; fill: #1f2933" transform="translate(259.128922 201.222744)">Modbus RTU/RS485;</text>
    <text style="font-size: 6.7px; font-family: 'Times New Roman', 'DejaVu Serif', serif; fill: #1f2933" transform="translate(254.14318 207.45394)">thử nghiệm thật đang chờ</text>
   </g>
   <g id="text_16">
    <g id="patch_20">
     <path d="M 119.56343 62.44156 
L 160.44457 62.44156 
L 160.44457 47.767134 
L 119.56343 47.767134 
z
" style="fill: #ffffff; stroke: #ffffff; stroke-linejoin: miter"/>
    </g>
    <text style="font-size: 7.3px; font-family: 'Times New Roman', 'DejaVu Serif', serif; text-anchor: middle; fill: #2f6690" x="140.004" y="56.851072" transform="rotate(-0 140.004 56.851072)">REST/TLS</text>
   </g>
   <g id="text_17">
    <g id="patch_21">
     <path d="M 244.790648 62.44156 
L 289.107352 62.44156 
L 289.107352 47.773978 
L 244.790648 47.773978 
z
" style="fill: #ffffff; stroke: #ffffff; stroke-linejoin: miter"/>
    </g>
    <text style="font-size: 7.3px; font-family: 'Times New Roman', 'DejaVu Serif', serif; text-anchor: middle; fill: #c56a1a" x="266.949" y="56.851072" transform="rotate(-0 266.949 56.851072)">forecast API</text>
   </g>
   <g id="text_18">
    <g id="patch_22">
     <path d="M 142.737195 97.36876 
L 203.672805 97.36876 
L 203.672805 81.258287 
L 142.737195 81.258287 
z
" style="fill: #ffffff; stroke: #ffffff; stroke-linejoin: miter"/>
    </g>
    <text style="font-size: 7.3px; font-family: 'Times New Roman', 'DejaVu Serif', serif; text-anchor: middle; fill: #2f6690" x="173.205" y="91.778272" transform="rotate(-0 173.205 91.778272)">lệnh đã cấp quyền</text>
   </g>
   <g id="text_19">
    <g id="patch_23">
     <path d="M 217.448008 97.36876 
L 269.577992 97.36876 
L 269.577992 82.694334 
L 217.448008 82.694334 
z
" style="fill: #ffffff; stroke: #ffffff; stroke-linejoin: miter"/>
    </g>
    <text style="font-size: 7.3px; font-family: 'Times New Roman', 'DejaVu Serif', serif; text-anchor: middle; fill: #2a7f62" x="243.513" y="91.778272" transform="rotate(-0 243.513 91.778272)">đọc/ghi dữ liệu</text>
   </g>
   <g id="text_20">
    <g id="patch_24">
     <path d="M 108.098148 164.89468 
L 140.661852 164.89468 
L 140.661852 150.220254 
L 108.098148 150.220254 
z
" style="fill: #ffffff; stroke: #ffffff; stroke-linejoin: miter"/>
    </g>
    <text style="font-size: 7.3px; font-family: 'Times New Roman', 'DejaVu Serif', serif; text-anchor: middle; fill: #2f6690" x="124.38" y="159.304192" transform="rotate(-0 124.38 159.304192)">S7 write</text>
   </g>
   <g id="text_21">
    <g id="patch_25">
     <path d="M 90.154547 174.2086 
L 142.981453 174.2086 
L 142.981453 159.534174 
L 90.154547 159.534174 
z
" style="fill: #ffffff; stroke: #ffffff; stroke-linejoin: miter"/>
    </g>
    <text style="font-size: 7.3px; font-family: 'Times New Roman', 'DejaVu Serif', serif; text-anchor: middle; fill: #c56a1a" x="116.568" y="168.618112" transform="rotate(-0 116.568 168.618112)">status feedback</text>
   </g>
   <g id="text_22">
    <g id="patch_26">
     <path d="M 181.779227 195.16492 
L 211.502773 195.16492 
L 211.502773 180.490494 
L 181.779227 180.490494 
z
" style="fill: #ffffff; stroke: #ffffff; stroke-linejoin: miter"/>
    </g>
    <text style="font-size: 7.3px; font-family: 'Times New Roman', 'DejaVu Serif', serif; text-anchor: middle; fill: #2a7f62" x="196.641" y="189.574432" transform="rotate(-0 196.641 189.574432)">đo điện</text>
   </g>
   <g id="text_23">
    <g id="patch_27">
     <path d="M 294.162148 115.9966 
L 321.761852 115.9966 
L 321.761852 101.322174 
L 294.162148 101.322174 
z
" style="fill: #ffffff; stroke: #ffffff; stroke-linejoin: miter"/>
    </g>
    <text style="font-size: 7.3px; font-family: 'Times New Roman', 'DejaVu Serif', serif; text-anchor: middle; fill: #2a7f62" x="307.962" y="110.406112" transform="rotate(-0 307.962 110.406112)">lịch sử</text>
   </g>
   <g id="text_24">
    <g id="patch_28">
     <path d="M 289.910969 97.36876 
L 333.825031 97.36876 
L 333.825031 81.258287 
L 289.910969 81.258287 
z
" style="fill: #ffffff; stroke: #ffffff; stroke-linejoin: miter"/>
    </g>
    <text style="font-size: 7.3px; font-family: 'Times New Roman', 'DejaVu Serif', serif; text-anchor: middle; fill: #c56a1a" x="311.868" y="91.778272" transform="rotate(-0 311.868 91.778272)">kết quả 24 h</text>
   </g>
   <g id="legend_1">
    <g id="line2d_4">
     <path d="M 52.469375 232.978397 
L 60.469375 232.978397 
L 68.469375 232.978397 
" style="fill: none; stroke: #2f6690; stroke-width: 1.5; stroke-linecap: square"/>
    </g>
    <g id="text_25">
     <text style="font-size: 8px; font-family: 'Times New Roman', 'DejaVu Serif', serif; text-anchor: start" x="74.869375" y="235.778398" transform="rotate(-0 74.869375 235.778398)">luồng điều khiển</text>
    </g>
    <g id="line2d_5">
     <path d="M 144.639375 232.978397 
L 152.639375 232.978397 
L 160.639375 232.978397 
" style="fill: none; stroke: #c56a1a; stroke-width: 1.5; stroke-linecap: square"/>
    </g>
    <g id="text_26">
     <text style="font-size: 8px; font-family: 'Times New Roman', 'DejaVu Serif', serif; text-anchor: start" x="167.039375" y="235.778398" transform="rotate(-0 167.039375 235.778398)">luồng phản hồi/dự báo</text>
    </g>
    <g id="line2d_6">
     <path d="M 255.145625 232.978397 
L 263.145625 232.978397 
L 271.145625 232.978397 
" style="fill: none; stroke-dasharray: 5.55,2.4; stroke-dashoffset: 0; stroke: #2a7f62; stroke-width: 1.5"/>
    </g>
    <g id="text_27">
     <text style="font-size: 8px; font-family: 'Times New Roman', 'DejaVu Serif', serif; text-anchor: start" x="277.545625" y="235.778398" transform="rotate(-0 277.545625 235.778398)">luồng telemetry/dữ liệu</text>
    </g>
   </g>
  </g>
 </g>
 <defs>
  <clipPath id="p525854118f">
   <rect x="7.2" y="7.2" width="390.6" height="232.848"/>
  </clipPath>
 </defs>
</svg>
