<?xml version="1.0" encoding="utf-8" standalone="no"?>
<!DOCTYPE svg PUBLIC "-//W3C//DTD SVG 1.1//EN"
  "http://www.w3.org/Graphics/SVG/1.1/DTD/svg11.dtd">
<svg xmlns:xlink="http://www.w3.org/1999/xlink" width="714.96pt" height="225.36pt" viewBox="0 0 714.96 225.36" xmlns="http://www.w3.org/2000/svg" version="1.1">
 <metadata>
  <rdf:RDF xmlns:dc="http://purl.org/dc/elements/1.1/" xmlns:cc="http://creativecommons.org/ns#" xmlns:rdf="http://www.w3.org/1999/02/22-rdf-syntax-ns#">
   <cc:Work>
    <dc:type rdf:resource="http://purl.org/dc/dcmitype/StillImage"/>
    <dc:date>2026-07-11T20:45:05.154470</dc:date>
    <dc:format>image/svg+xml</dc:format>
    <dc:creator>
     <cc:Agent>
      <dc:title>Matplotlib v3.11.0, https://matplotlib.org/</dc:title>
     </cc:Agent>
    </dc:creator>
   </cc:Work>
  </rdf:RDF>
 </metadata>
 <defs>
  <style type="text/css">*{stroke-linejoin: round; stroke-linecap: butt}</style>
 </defs>
 <g id="figure_1">
  <g id="patch_1">
   <path d="M 0 225.36
L 714.96 225.36
L 714.96 0
L 0 0
z
" style="fill: #ffffff"/>
  </g>
  <g id="axes_1">
   <g id="patch_2">
    <path d="M 28.2168 144.324
L 133.3008 144.324
L 133.3008 81.036
L 28.2168 81.036
z
" clip-path="url(#p9cba756555)" style="fill: #4c78a8; opacity: 0.18; stroke: #4c78a8; stroke-width: 1.6; stroke-linejoin: miter"/>
   </g>
   <g id="patch_3">
    <path d="M 164.826 144.324
L 269.91 144.324
L 269.91 81.036
L 164.826 81.036
z
" clip-path="url(#p9cba756555)" style="fill: #59a14f; opacity: 0.18; stroke: #59a14f; stroke-width: 1.6; stroke-linejoin: miter"/>
   </g>
   <g id="patch_4">
    <path d="M 301.4352 144.324
L 406.5192 144.324
L 406.5192 81.036
L 301.4352 81.036
z
" clip-path="url(#p9cba756555)" style="fill: #f28e2b; opacity: 0.18; stroke: #f28e2b; stroke-width: 1.6; stroke-linejoin: miter"/>
   </g>
   <g id="patch_5">
    <path d="M 438.0444 144.324
L 543.1284 144.324
L 543.1284 81.036
L 438.0444 81.036
z
" clip-path="url(#p9cba756555)" style="fill: #b07aa1; opacity: 0.18; stroke: #b07aa1; stroke-width: 1.6; stroke-linejoin: miter"/>
   </g>
   <g id="patch_6">
    <path d="M 574.6536 144.324
L 679.7376 144.324
L 679.7376 81.036
L 574.6536 81.036
z
" clip-path="url(#p9cba756555)" style="fill: #76b7b2; opacity: 0.18; stroke: #76b7b2; stroke-width: 1.6; stroke-linejoin: miter"/>
   </g>
   <g id="text_1">
    <!-- Raw log -->
    <g transform="translate(60.67755 109.437012) scale(0.09 -0.09)">
     <defs>
      <path id="DejaVuSans-Bold-35" d="M 2297 2597
Q 2675 2597 2839 2737
Q 3003 2878 3003 3200
Q 3003 3519 2839 3656
Q 2675 3794 2297 3794
L 1791 3794
L 1791 2597
L 2297 2597
z
M 1791 1766
L 1791 0
L 588 0
L 588 4666
L 2425 4666
Q 3347 4666 3776 4356
Q 4206 4047 4206 3378
Q 4206 2916 3982 2619
Q 3759 2322 3309 2181
Q 3556 2125 3751 1926
Q 3947 1728 4147 1325
L 4800 0
L 3519 0
L 2950 1159
Q 2778 1509 2601 1637
Q 2425 1766 2131 1766
L 1791 1766
z
" transform="scale(0.015625)"/>
      <path id="DejaVuSans-Bold-44" d="M 2106 1575
Q 1756 1575 1579 1456
Q 1403 1338 1403 1106
Q 1403 894 1545 773
Q 1688 653 1941 653
Q 2256 653 2472 879
Q 2688 1106 2688 1447
L 2688 1575
L 2106 1575
z
M 3816 1997
L 3816 0
L 2688 0
L 2688 519
Q 2463 200 2181 54
Q 1900 -91 1497 -91
Q 953 -91 614 226
Q 275 544 275 1050
Q 275 1666 698 1953
Q 1122 2241 2028 2241
L 2688 2241
L 2688 2328
Q 2688 2594 2478 2717
Q 2269 2841 1825 2841
Q 1466 2841 1156 2769
Q 847 2697 581 2553
L 581 3406
Q 941 3494 1303 3539
Q 1666 3584 2028 3584
Q 2975 3584 3395 3211
Q 3816 2838 3816 1997
z
" transform="scale(0.015625)"/>
      <path id="DejaVuSans-Bold-5a" d="M 225 3500
L 1313 3500
L 1900 1088
L 2491 3500
L 3425 3500
L 4013 1113
L 4603 3500
L 5691 3500
L 4769 0
L 3547 0
L 2956 2406
L 2369 0
L 1147 0
L 225 3500
z
" transform="scale(0.015625)"/>
      <path id="DejaVuSans-Bold-3" transform="scale(0.015625)"/>
      <path id="DejaVuSans-Bold-4f" d="M 538 4863
L 1656 4863
L 1656 0
L 538 0
L 538 4863
z
" transform="scale(0.015625)"/>
      <path id="DejaVuSans-Bold-52" d="M 2203 2784
Q 1831 2784 1636 2517
Q 1441 2250 1441 1747
Q 1441 1244 1636 976
Q 1831 709 2203 709
Q 2569 709 2762 976
Q 2956 1244 2956 1747
Q 2956 2250 2762 2517
Q 2569 2784 2203 2784
z
M 2203 3584
Q 3106 3584 3614 3096
Q 4122 2609 4122 1747
Q 4122 884 3614 396
Q 3106 -91 2203 -91
Q 1297 -91 786 396
Q 275 884 275 1747
Q 275 2609 786 3096
Q 1297 3584 2203 3584
z
" transform="scale(0.015625)"/>
      <path id="DejaVuSans-Bold-4a" d="M 2919 594
Q 2688 288 2409 144
Q 2131 0 1766 0
Q 1125 0 706 504
Q 288 1009 288 1791
Q 288 2575 706 3076
Q 1125 3578 1766 3578
Q 2131 3578 2409 3434
Q 2688 3291 2919 2981
L 2919 3500
L 4044 3500
L 4044 353
Q 4044 -491 3511 -936
Q 2978 -1381 1966 -1381
Q 1638 -1381 1331 -1331
Q 1025 -1281 716 -1178
L 716 -306
Q 1009 -475 1290 -558
Q 1572 -641 1856 -641
Q 2406 -641 2662 -400
Q 2919 -159 2919 353
L 2919 594
z
M 2181 2772
Q 1834 2772 1640 2515
Q 1447 2259 1447 1791
Q 1447 1309 1634 1061
Q 1822 813 2181 813
Q 2531 813 2725 1069
Q 2919 1325 2919 1791
Q 2919 2259 2725 2515
Q 2531 2772 2181 2772
z
" transform="scale(0.015625)"/>
     </defs>
     <use xlink:href="#DejaVuSans-Bold-35"/>
     <use xlink:href="#DejaVuSans-Bold-44" transform="translate(77 0)"/>
     <use xlink:href="#DejaVuSans-Bold-5a" transform="translate(144.484375 0)"/>
     <use xlink:href="#DejaVuSans-Bold-3" transform="translate(236.875 0)"/>
     <use xlink:href="#DejaVuSans-Bold-4f" transform="translate(271.6875 0)"/>
     <use xlink:href="#DejaVuSans-Bold-52" transform="translate(305.96875 0)"/>
     <use xlink:href="#DejaVuSans-Bold-4a" transform="translate(374.671875 0)"/>
    </g>
    <!-- PLC thật -->
    <g transform="translate(59.182003 120.599473) scale(0.09 -0.09)">
     <defs>
      <path id="DejaVuSans-Bold-33" d="M 588 4666
L 2584 4666
Q 3475 4666 3951 4270
Q 4428 3875 4428 3144
Q 4428 2409 3951 2014
Q 3475 1619 2584 1619
L 1791 1619
L 1791 0
L 588 0
L 588 4666
z
M 1791 3794
L 1791 2491
L 2456 2491
Q 2806 2491 2997 2661
Q 3188 2831 3188 3144
Q 3188 3456 2997 3625
Q 2806 3794 2456 3794
L 1791 3794
z
" transform="scale(0.015625)"/>
      <path id="DejaVuSans-Bold-2f" d="M 588 4666
L 1791 4666
L 1791 909
L 3903 909
L 3903 0
L 588 0
L 588 4666
z
" transform="scale(0.015625)"/>
      <path id="DejaVuSans-Bold-26" d="M 4288 256
Q 3956 84 3597 -3
Q 3238 -91 2847 -91
Q 1681 -91 1000 561
Q 319 1213 319 2328
Q 319 3447 1000 4098
Q 1681 4750 2847 4750
Q 3238 4750 3597 4662
Q 3956 4575 4288 4403
L 4288 3438
Q 3953 3666 3628 3772
Q 3303 3878 2944 3878
Q 2300 3878 1931 3465
Q 1563 3053 1563 2328
Q 1563 1606 1931 1193
Q 2300 781 2944 781
Q 3303 781 3628 887
Q 3953 994 4288 1222
L 4288 256
z
" transform="scale(0.015625)"/>
      <path id="DejaVuSans-Bold-57" d="M 1759 4494
L 1759 3500
L 2913 3500
L 2913 2700
L 1759 2700
L 1759 1216
Q 1759 972 1856 886
Q 1953 800 2241 800
L 2816 800
L 2816 0
L 1856 0
Q 1194 0 917 276
Q 641 553 641 1216
L 641 2700
L 84 2700
L 84 3500
L 641 3500
L 641 4494
L 1759 4494
z
" transform="scale(0.015625)"/>
      <path id="DejaVuSans-Bold-4b" d="M 4056 2131
L 4056 0
L 2931 0
L 2931 347
L 2931 1625
Q 2931 2084 2911 2256
Q 2891 2428 2841 2509
Q 2775 2619 2662 2680
Q 2550 2741 2406 2741
Q 2056 2741 1856 2470
Q 1656 2200 1656 1722
L 1656 0
L 538 0
L 538 4863
L 1656 4863
L 1656 2988
Q 1909 3294 2193 3439
Q 2478 3584 2822 3584
Q 3428 3584 3742 3212
Q 4056 2841 4056 2131
z
" transform="scale(0.015625)"/>
      <path id="DejaVuSans-Bold-9aa" d="M 2106 1575
Q 1756 1575 1579 1456
Q 1403 1338 1403 1106
Q 1403 894 1545 773
Q 1688 653 1941 653
Q 2256 653 2472 879
Q 2688 1106 2688 1447
L 2688 1575
L 2106 1575
z
M 3816 1997
L 3816 0
L 2688 0
L 2688 519
Q 2463 200 2181 54
Q 1900 -91 1497 -91
Q 953 -91 614 226
Q 275 544 275 1050
Q 275 1666 698 1953
Q 1122 2241 2028 2241
L 2688 2241
L 2688 2328
Q 2688 2594 2478 2717
Q 2269 2841 1825 2841
Q 1466 2841 1156 2769
Q 847 2697 581 2553
L 581 3406
Q 941 3494 1303 3539
Q 1666 3584 2028 3584
Q 2975 3584 3395 3211
Q 3816 2838 3816 1997
z
M 1803 5119
L 2559 5119
L 3359 3944
L 2803 3944
L 2181 4647
L 1559 3944
L 1003 3944
L 1803 5119
z
M 1415 -447
L 2534 -447
L 2534 -1359
L 1415 -1359
L 1415 -447
z
" transform="scale(0.015625)"/>
     </defs>
     <use xlink:href="#DejaVuSans-Bold-33"/>
     <use xlink:href="#DejaVuSans-Bold-2f" transform="translate(73.296875 0)"/>
     <use xlink:href="#DejaVuSans-Bold-26" transform="translate(137.015625 0)"/>
     <use xlink:href="#DejaVuSans-Bold-3" transform="translate(210.40625 0)"/>
     <use xlink:href="#DejaVuSans-Bold-57" transform="translate(245.21875 0)"/>
     <use xlink:href="#DejaVuSans-Bold-4b" transform="translate(293.015625 0)"/>
     <use xlink:href="#DejaVuSans-Bold-9aa" transform="translate(364.203125 0)"/>
     <use xlink:href="#DejaVuSans-Bold-57" transform="translate(431.6875 0)"/>
    </g>
   </g>
   <g id="patch_7">
    <path d="M 138.805994 112.68
Q 149.065451 112.68 157.536054 112.68
" style="fill: none; stroke: #334155; stroke-width: 1.6; stroke-linecap: round"/>
    <path d="M 153.936054 110.88
L 157.536054 112.68
L 153.936054 114.48
" style="fill: none; stroke: #334155; stroke-width: 1.6; stroke-linecap: round"/>
   </g>
   <g id="text_2">
    <!-- Thống kê + -->
    <g transform="translate(188.750812 110.123965) scale(0.09 -0.09)">
     <defs>
      <path id="DejaVuSans-Bold-37" d="M 31 4666
L 4331 4666
L 4331 3756
L 2784 3756
L 2784 0
L 1581 0
L 1581 3756
L 31 3756
L 31 4666
z
" transform="scale(0.015625)"/>
      <path id="DejaVuSans-Bold-9ce" d="M 2203 2784
Q 1831 2784 1636 2517
Q 1441 2250 1441 1747
Q 1441 1244 1636 976
Q 1831 709 2203 709
Q 2569 709 2762 976
Q 2956 1244 2956 1747
Q 2956 2250 2762 2517
Q 2569 2784 2203 2784
z
M 2203 3584
Q 3106 3584 3614 3096
Q 4122 2609 4122 1747
Q 4122 884 3614 396
Q 3106 -91 2203 -91
Q 1297 -91 786 396
Q 275 884 275 1747
Q 275 2609 786 3096
Q 1297 3584 2203 3584
z
M 1704 4772
L 2666 4772
L 3363 3947
L 2807 3947
L 2185 4450
L 1563 3947
L 1007 3947
L 1704 4772
z
M 3462 5584
L 4347 5584
L 3456 4759
L 2844 4759
L 3462 5584
z
" transform="scale(0.015625)"/>
      <path id="DejaVuSans-Bold-51" d="M 4056 2131
L 4056 0
L 2931 0
L 2931 347
L 2931 1631
Q 2931 2084 2911 2256
Q 2891 2428 2841 2509
Q 2775 2619 2662 2680
Q 2550 2741 2406 2741
Q 2056 2741 1856 2470
Q 1656 2200 1656 1722
L 1656 0
L 538 0
L 538 3500
L 1656 3500
L 1656 2988
Q 1909 3294 2193 3439
Q 2478 3584 2822 3584
Q 3428 3584 3742 3212
Q 4056 2841 4056 2131
z
" transform="scale(0.015625)"/>
      <path id="DejaVuSans-Bold-4e" d="M 538 4863
L 1656 4863
L 1656 2216
L 2944 3500
L 4244 3500
L 2534 1894
L 4378 0
L 3022 0
L 1656 1459
L 1656 0
L 538 0
L 538 4863
z
" transform="scale(0.015625)"/>
      <path id="DejaVuSans-Bold-ac" d="M 4031 1759
L 4031 1441
L 1416 1441
Q 1456 1047 1700 850
Q 1944 653 2381 653
Q 2734 653 3104 758
Q 3475 863 3866 1075
L 3866 213
Q 3469 63 3072 -14
Q 2675 -91 2278 -91
Q 1328 -91 801 392
Q 275 875 275 1747
Q 275 2603 792 3093
Q 1309 3584 2216 3584
Q 3041 3584 3536 3087
Q 4031 2591 4031 1759
z
M 2881 2131
Q 2881 2450 2695 2645
Q 2509 2841 2209 2841
Q 1884 2841 1681 2658
Q 1478 2475 1428 2131
L 2881 2131
z
M 1900 5119
L 2656 5119
L 3456 3944
L 2900 3944
L 2278 4647
L 1656 3944
L 1100 3944
L 1900 5119
z
" transform="scale(0.015625)"/>
      <path id="DejaVuSans-Bold-e" d="M 3053 4013
L 3053 2375
L 4684 2375
L 4684 1638
L 3053 1638
L 3053 0
L 2309 0
L 2309 1638
L 678 1638
L 678 2375
L 2309 2375
L 2309 4013
L 3053 4013
z
" transform="scale(0.015625)"/>
     </defs>
     <use xlink:href="#DejaVuSans-Bold-37"/>
     <use xlink:href="#DejaVuSans-Bold-4b" transform="translate(68.21875 0)"/>
     <use xlink:href="#DejaVuSans-Bold-9ce" transform="translate(139.40625 0)"/>
     <use xlink:href="#DejaVuSans-Bold-51" transform="translate(208.109375 0)"/>
     <use xlink:href="#DejaVuSans-Bold-4a" transform="translate(279.296875 0)"/>
     <use xlink:href="#DejaVuSans-Bold-3" transform="translate(350.875 0)"/>
     <use xlink:href="#DejaVuSans-Bold-4e" transform="translate(385.6875 0)"/>
     <use xlink:href="#DejaVuSans-Bold-ac" transform="translate(449.5 0)"/>
     <use xlink:href="#DejaVuSans-Bold-3" transform="translate(517.328125 0)"/>
     <use xlink:href="#DejaVuSans-Bold-e" transform="translate(552.140625 0)"/>
    </g>
    <!-- benchmark -->
    <g transform="translate(189.082687 120.926426) scale(0.09 -0.09)">
     <defs>
      <path id="DejaVuSans-Bold-45" d="M 2400 722
Q 2759 722 2948 984
Q 3138 1247 3138 1747
Q 3138 2247 2948 2509
Q 2759 2772 2400 2772
Q 2041 2772 1848 2508
Q 1656 2244 1656 1747
Q 1656 1250 1848 986
Q 2041 722 2400 722
z
M 1656 2988
Q 1888 3294 2169 3439
Q 2450 3584 2816 3584
Q 3463 3584 3878 3070
Q 4294 2556 4294 1747
Q 4294 938 3878 423
Q 3463 -91 2816 -91
Q 2450 -91 2169 54
Q 1888 200 1656 506
L 1656 0
L 538 0
L 538 4863
L 1656 4863
L 1656 2988
z
" transform="scale(0.015625)"/>
      <path id="DejaVuSans-Bold-48" d="M 4031 1759
L 4031 1441
L 1416 1441
Q 1456 1047 1700 850
Q 1944 653 2381 653
Q 2734 653 3104 758
Q 3475 863 3866 1075
L 3866 213
Q 3469 63 3072 -14
Q 2675 -91 2278 -91
Q 1328 -91 801 392
Q 275 875 275 1747
Q 275 2603 792 3093
Q 1309 3584 2216 3584
Q 3041 3584 3536 3087
Q 4031 2591 4031 1759
z
M 2881 2131
Q 2881 2450 2695 2645
Q 2509 2841 2209 2841
Q 1884 2841 1681 2658
Q 1478 2475 1428 2131
L 2881 2131
z
" transform="scale(0.015625)"/>
      <path id="DejaVuSans-Bold-46" d="M 3366 3391
L 3366 2478
Q 3138 2634 2908 2709
Q 2678 2784 2431 2784
Q 1963 2784 1702 2511
Q 1441 2238 1441 1747
Q 1441 1256 1702 982
Q 1963 709 2431 709
Q 2694 709 2930 787
Q 3166 866 3366 1019
L 3366 103
Q 3103 6 2833 -42
Q 2563 -91 2291 -91
Q 1344 -91 809 395
Q 275 881 275 1747
Q 275 2613 809 3098
Q 1344 3584 2291 3584
Q 2566 3584 2833 3536
Q 3100 3488 3366 3391
z
" transform="scale(0.015625)"/>
      <path id="DejaVuSans-Bold-50" d="M 3781 2919
Q 3994 3244 4286 3414
Q 4578 3584 4928 3584
Q 5531 3584 5847 3212
Q 6163 2841 6163 2131
L 6163 0
L 5038 0
L 5038 1825
Q 5041 1866 5042 1909
Q 5044 1953 5044 2034
Q 5044 2406 4934 2573
Q 4825 2741 4581 2741
Q 4263 2741 4089 2478
Q 3916 2216 3909 1719
L 3909 0
L 2784 0
L 2784 1825
Q 2784 2406 2684 2573
Q 2584 2741 2328 2741
Q 2006 2741 1831 2477
Q 1656 2213 1656 1722
L 1656 0
L 531 0
L 531 3500
L 1656 3500
L 1656 2988
Q 1863 3284 2130 3434
Q 2397 3584 2719 3584
Q 3081 3584 3359 3409
Q 3638 3234 3781 2919
z
" transform="scale(0.015625)"/>
      <path id="DejaVuSans-Bold-55" d="M 3138 2547
Q 2991 2616 2845 2648
Q 2700 2681 2553 2681
Q 2122 2681 1889 2404
Q 1656 2128 1656 1613
L 1656 0
L 538 0
L 538 3500
L 1656 3500
L 1656 2925
Q 1872 3269 2151 3426
Q 2431 3584 2822 3584
Q 2878 3584 2943 3579
Q 3009 3575 3134 3559
L 3138 2547
z
" transform="scale(0.015625)"/>
     </defs>
     <use xlink:href="#DejaVuSans-Bold-45"/>
     <use xlink:href="#DejaVuSans-Bold-48" transform="translate(71.578125 0)"/>
     <use xlink:href="#DejaVuSans-Bold-51" transform="translate(139.40625 0)"/>
     <use xlink:href="#DejaVuSans-Bold-46" transform="translate(210.59375 0)"/>
     <use xlink:href="#DejaVuSans-Bold-4b" transform="translate(269.875 0)"/>
     <use xlink:href="#DejaVuSans-Bold-50" transform="translate(341.0625 0)"/>
     <use xlink:href="#DejaVuSans-Bold-44" transform="translate(445.265625 0)"/>
     <use xlink:href="#DejaVuSans-Bold-55" transform="translate(512.75 0)"/>
     <use xlink:href="#DejaVuSans-Bold-4e" transform="translate(562.0625 0)"/>
    </g>
   </g>
   <g id="patch_8">
    <path d="M 275.415194 112.68
Q 285.674651 112.68 294.145254 112.68
" style="fill: none; stroke: #334155; stroke-width: 1.6; stroke-linecap: round"/>
    <path d="M 290.545254 110.88
L 294.145254 112.68
L 290.545254 114.48
" style="fill: none; stroke: #334155; stroke-width: 1.6; stroke-linecap: round"/>
   </g>
   <g id="text_3">
    <!-- Canonical -->
    <g transform="translate(329.349544 109.617012) scale(0.09 -0.09)">
     <defs>
      <path id="DejaVuSans-Bold-4c" d="M 538 3500
L 1656 3500
L 1656 0
L 538 0
L 538 3500
z
M 538 4863
L 1656 4863
L 1656 3950
L 538 3950
L 538 4863
z
" transform="scale(0.015625)"/>
     </defs>
     <use xlink:href="#DejaVuSans-Bold-26"/>
     <use xlink:href="#DejaVuSans-Bold-44" transform="translate(73.390625 0)"/>
     <use xlink:href="#DejaVuSans-Bold-51" transform="translate(140.875 0)"/>
     <use xlink:href="#DejaVuSans-Bold-52" transform="translate(212.0625 0)"/>
     <use xlink:href="#DejaVuSans-Bold-51" transform="translate(280.765625 0)"/>
     <use xlink:href="#DejaVuSans-Bold-4c" transform="translate(351.953125 0)"/>
     <use xlink:href="#DejaVuSans-Bold-46" transform="translate(386.234375 0)"/>
     <use xlink:href="#DejaVuSans-Bold-44" transform="translate(445.515625 0)"/>
     <use xlink:href="#DejaVuSans-Bold-4f" transform="translate(513 0)"/>
    </g>
    <!-- results.json -->
    <g transform="translate(324.227278 120.419473) scale(0.09 -0.09)">
     <defs>
      <path id="DejaVuSans-Bold-56" d="M 3272 3391
L 3272 2541
Q 2913 2691 2578 2766
Q 2244 2841 1947 2841
Q 1628 2841 1473 2761
Q 1319 2681 1319 2516
Q 1319 2381 1436 2309
Q 1553 2238 1856 2203
L 2053 2175
Q 2913 2066 3209 1816
Q 3506 1566 3506 1031
Q 3506 472 3093 190
Q 2681 -91 1863 -91
Q 1516 -91 1145 -36
Q 775 19 384 128
L 384 978
Q 719 816 1070 734
Q 1422 653 1784 653
Q 2113 653 2278 743
Q 2444 834 2444 1013
Q 2444 1163 2330 1236
Q 2216 1309 1875 1350
L 1678 1375
Q 931 1469 631 1722
Q 331 1975 331 2491
Q 331 3047 712 3315
Q 1094 3584 1881 3584
Q 2191 3584 2531 3537
Q 2872 3491 3272 3391
z
" transform="scale(0.015625)"/>
      <path id="DejaVuSans-Bold-58" d="M 500 1363
L 500 3500
L 1625 3500
L 1625 3150
Q 1625 2866 1622 2436
Q 1619 2006 1619 1863
Q 1619 1441 1641 1255
Q 1663 1069 1716 984
Q 1784 875 1895 815
Q 2006 756 2150 756
Q 2500 756 2700 1025
Q 2900 1294 2900 1772
L 2900 3500
L 4019 3500
L 4019 0
L 2900 0
L 2900 506
Q 2647 200 2364 54
Q 2081 -91 1741 -91
Q 1134 -91 817 281
Q 500 653 500 1363
z
" transform="scale(0.015625)"/>
      <path id="DejaVuSans-Bold-11" d="M 653 1209
L 1778 1209
L 1778 0
L 653 0
L 653 1209
z
" transform="scale(0.015625)"/>
      <path id="DejaVuSans-Bold-4d" d="M 538 3500
L 1656 3500
L 1656 63
Q 1656 -641 1318 -1011
Q 981 -1381 341 -1381
L -213 -1381
L -213 -647
L -19 -647
Q 300 -647 419 -503
Q 538 -359 538 63
L 538 3500
z
M 538 4863
L 1656 4863
L 1656 3950
L 538 3950
L 538 4863
z
" transform="scale(0.015625)"/>
     </defs>
     <use xlink:href="#DejaVuSans-Bold-55"/>
     <use xlink:href="#DejaVuSans-Bold-48" transform="translate(49.3125 0)"/>
     <use xlink:href="#DejaVuSans-Bold-56" transform="translate(117.140625 0)"/>
     <use xlink:href="#DejaVuSans-Bold-58" transform="translate(176.65625 0)"/>
     <use xlink:href="#DejaVuSans-Bold-4f" transform="translate(247.84375 0)"/>
     <use xlink:href="#DejaVuSans-Bold-57" transform="translate(282.125 0)"/>
     <use xlink:href="#DejaVuSans-Bold-56" transform="translate(329.921875 0)"/>
     <use xlink:href="#DejaVuSans-Bold-11" transform="translate(389.4375 0)"/>
     <use xlink:href="#DejaVuSans-Bold-4d" transform="translate(427.421875 0)"/>
     <use xlink:href="#DejaVuSans-Bold-56" transform="translate(461.703125 0)"/>
     <use xlink:href="#DejaVuSans-Bold-52" transform="translate(521.21875 0)"/>
     <use xlink:href="#DejaVuSans-Bold-51" transform="translate(589.921875 0)"/>
    </g>
   </g>
   <g id="patch_9">
    <path d="M 412.024394 112.68
Q 422.283851 112.68 430.754454 112.68
" style="fill: none; stroke: #334155; stroke-width: 1.6; stroke-linecap: round"/>
    <path d="M 427.154454 110.88
L 430.754454 112.68
L 427.154454 114.48
" style="fill: none; stroke: #334155; stroke-width: 1.6; stroke-linecap: round"/>
   </g>
   <g id="text_4">
    <!-- Excel + hình -->
    <g transform="translate(459.290306 109.797012) scale(0.09 -0.09)">
     <defs>
      <path id="DejaVuSans-Bold-28" d="M 588 4666
L 3834 4666
L 3834 3756
L 1791 3756
L 1791 2888
L 3713 2888
L 3713 1978
L 1791 1978
L 1791 909
L 3903 909
L 3903 0
L 588 0
L 588 4666
z
" transform="scale(0.015625)"/>
      <path id="DejaVuSans-Bold-5b" d="M 1422 1791
L 159 3500
L 1344 3500
L 2059 2463
L 2784 3500
L 3969 3500
L 2706 1797
L 4031 0
L 2847 0
L 2059 1106
L 1281 0
L 97 0
L 1422 1791
z
" transform="scale(0.015625)"/>
      <path id="DejaVuSans-Bold-ae" d="M 538 3500
L 1656 3500
L 1656 0
L 538 0
L 538 3500
z
M 750 5119
L 1631 3944
L 1019 3944
L -134 5119
L 750 5119
z
" transform="scale(0.015625)"/>
     </defs>
     <use xlink:href="#DejaVuSans-Bold-28"/>
     <use xlink:href="#DejaVuSans-Bold-5b" transform="translate(68.3125 0)"/>
     <use xlink:href="#DejaVuSans-Bold-46" transform="translate(132.8125 0)"/>
     <use xlink:href="#DejaVuSans-Bold-48" transform="translate(192.09375 0)"/>
     <use xlink:href="#DejaVuSans-Bold-4f" transform="translate(259.921875 0)"/>
     <use xlink:href="#DejaVuSans-Bold-3" transform="translate(294.203125 0)"/>
     <use xlink:href="#DejaVuSans-Bold-e" transform="translate(329.015625 0)"/>
     <use xlink:href="#DejaVuSans-Bold-3" transform="translate(412.8125 0)"/>
     <use xlink:href="#DejaVuSans-Bold-4b" transform="translate(447.625 0)"/>
     <use xlink:href="#DejaVuSans-Bold-ae" transform="translate(518.8125 0)"/>
     <use xlink:href="#DejaVuSans-Bold-51" transform="translate(553.09375 0)"/>
     <use xlink:href="#DejaVuSans-Bold-4b" transform="translate(624.28125 0)"/>
    </g>
    <!-- tự sinh -->
    <g transform="translate(473.037806 120.599473) scale(0.09 -0.09)">
     <defs>
      <path id="DejaVuSans-Bold-9ee" d="M 1697 -447
L 2816 -447
L 2816 -1359
L 1697 -1359
L 1697 -447
z
M 3437 2909
L 3437 3350
Q 3647 3194 3761 3134
Q 3875 3075 3956 3075
Q 4078 3075 4154 3167
Q 4231 3259 4231 3413
Q 4231 3534 4207 3654
Q 4184 3775 4134 3900
L 4622 3900
Q 4656 3728 4673 3581
Q 4690 3434 4690 3306
Q 4690 2947 4546 2755
Q 4403 2563 4134 2563
Q 3968 2563 3798 2647
Q 3628 2731 3437 2909
z
M 481 1363
L 481 3500
L 1606 3500
L 1606 3150
Q 1606 2866 1603 2436
Q 1600 2006 1600 1863
Q 1600 1441 1622 1255
Q 1644 1069 1697 984
Q 1765 875 1876 815
Q 1987 756 2131 756
Q 2481 756 2681 1025
Q 2881 1294 2881 1772
L 2881 3500
L 4000 3500
L 4000 0
L 2881 0
L 2881 506
Q 2628 200 2345 54
Q 2062 -91 1722 -91
Q 1115 -91 798 281
Q 481 653 481 1363
z
" transform="scale(0.015625)"/>
     </defs>
     <use xlink:href="#DejaVuSans-Bold-57"/>
     <use xlink:href="#DejaVuSans-Bold-9ee" transform="translate(47.796875 0)"/>
     <use xlink:href="#DejaVuSans-Bold-3" transform="translate(118.984375 0)"/>
     <use xlink:href="#DejaVuSans-Bold-56" transform="translate(153.796875 0)"/>
     <use xlink:href="#DejaVuSans-Bold-4c" transform="translate(213.3125 0)"/>
     <use xlink:href="#DejaVuSans-Bold-51" transform="translate(247.59375 0)"/>
     <use xlink:href="#DejaVuSans-Bold-4b" transform="translate(318.78125 0)"/>
    </g>
   </g>
   <g id="patch_10">
    <path d="M 548.633594 112.68
Q 558.893051 112.68 567.363654 112.68
" style="fill: none; stroke: #334155; stroke-width: 1.6; stroke-linecap: round"/>
    <path d="M 563.763654 110.88
L 567.363654 112.68
L 563.763654 114.48
" style="fill: none; stroke: #334155; stroke-width: 1.6; stroke-linecap: round"/>
   </g>
   <g id="text_5">
    <!-- Bài báo + -->
    <g transform="translate(602.932866 109.617012) scale(0.09 -0.09)">
     <defs>
      <path id="DejaVuSans-Bold-25" d="M 2456 2859
Q 2741 2859 2887 2984
Q 3034 3109 3034 3353
Q 3034 3594 2887 3720
Q 2741 3847 2456 3847
L 1791 3847
L 1791 2859
L 2456 2859
z
M 2497 819
Q 2859 819 3042 972
Q 3225 1125 3225 1434
Q 3225 1738 3044 1889
Q 2863 2041 2497 2041
L 1791 2041
L 1791 819
L 2497 819
z
M 3616 2497
Q 4003 2384 4215 2081
Q 4428 1778 4428 1338
Q 4428 663 3972 331
Q 3516 0 2584 0
L 588 0
L 588 4666
L 2394 4666
Q 3366 4666 3802 4372
Q 4238 4078 4238 3431
Q 4238 3091 4078 2852
Q 3919 2613 3616 2497
z
" transform="scale(0.015625)"/>
      <path id="DejaVuSans-Bold-a2" d="M 2106 1575
Q 1756 1575 1579 1456
Q 1403 1338 1403 1106
Q 1403 894 1545 773
Q 1688 653 1941 653
Q 2256 653 2472 879
Q 2688 1106 2688 1447
L 2688 1575
L 2106 1575
z
M 3816 1997
L 3816 0
L 2688 0
L 2688 519
Q 2463 200 2181 54
Q 1900 -91 1497 -91
Q 953 -91 614 226
Q 275 544 275 1050
Q 275 1666 698 1953
Q 1122 2241 2028 2241
L 2688 2241
L 2688 2328
Q 2688 2594 2478 2717
Q 2269 2841 1825 2841
Q 1466 2841 1156 2769
Q 847 2697 581 2553
L 581 3406
Q 941 3494 1303 3539
Q 1666 3584 2028 3584
Q 2975 3584 3395 3211
Q 3816 2838 3816 1997
z
M 1759 5119
L 2640 3944
L 2028 3944
L 875 5119
L 1759 5119
z
" transform="scale(0.015625)"/>
      <path id="DejaVuSans-Bold-a3" d="M 2106 1575
Q 1756 1575 1579 1456
Q 1403 1338 1403 1106
Q 1403 894 1545 773
Q 1688 653 1941 653
Q 2256 653 2472 879
Q 2688 1106 2688 1447
L 2688 1575
L 2106 1575
z
M 3816 1997
L 3816 0
L 2688 0
L 2688 519
Q 2463 200 2181 54
Q 1900 -91 1497 -91
Q 953 -91 614 226
Q 275 544 275 1050
Q 275 1666 698 1953
Q 1122 2241 2028 2241
L 2688 2241
L 2688 2328
Q 2688 2594 2478 2717
Q 2269 2841 1825 2841
Q 1466 2841 1156 2769
Q 847 2697 581 2553
L 581 3406
Q 941 3494 1303 3539
Q 1666 3584 2028 3584
Q 2975 3584 3395 3211
Q 3816 2838 3816 1997
z
M 2603 5119
L 3487 5119
L 2334 3944
L 1722 3944
L 2603 5119
z
" transform="scale(0.015625)"/>
     </defs>
     <use xlink:href="#DejaVuSans-Bold-25"/>
     <use xlink:href="#DejaVuSans-Bold-a2" transform="translate(76.21875 0)"/>
     <use xlink:href="#DejaVuSans-Bold-4c" transform="translate(143.703125 0)"/>
     <use xlink:href="#DejaVuSans-Bold-3" transform="translate(177.984375 0)"/>
     <use xlink:href="#DejaVuSans-Bold-45" transform="translate(212.796875 0)"/>
     <use xlink:href="#DejaVuSans-Bold-a3" transform="translate(284.375 0)"/>
     <use xlink:href="#DejaVuSans-Bold-52" transform="translate(351.859375 0)"/>
     <use xlink:href="#DejaVuSans-Bold-3" transform="translate(420.5625 0)"/>
     <use xlink:href="#DejaVuSans-Bold-e" transform="translate(455.375 0)"/>
    </g>
    <!-- luận văn -->
    <g transform="translate(605.469038 120.779473) scale(0.09 -0.09)">
     <defs>
      <path id="DejaVuSans-Bold-59" d="M 97 3500
L 1216 3500
L 2088 1081
L 2956 3500
L 4078 3500
L 2700 0
L 1472 0
L 97 3500
z
" transform="scale(0.015625)"/>
      <path id="DejaVuSans-Bold-c5" d="M 1231 4991
L 1678 4991
Q 1712 4772 1867 4656
Q 2022 4541 2281 4541
Q 2540 4541 2695 4656
Q 2850 4772 2884 4991
L 3331 4991
Q 3312 4541 3040 4302
Q 2769 4063 2281 4063
Q 1794 4063 1522 4302
Q 1250 4541 1231 4991
z
M 2106 1575
Q 1756 1575 1579 1456
Q 1403 1338 1403 1106
Q 1403 894 1545 773
Q 1688 653 1941 653
Q 2256 653 2472 879
Q 2688 1106 2688 1447
L 2688 1575
L 2106 1575
z
M 3816 1997
L 3816 0
L 2688 0
L 2688 519
Q 2463 200 2181 54
Q 1900 -91 1497 -91
Q 953 -91 614 226
Q 275 544 275 1050
Q 275 1666 698 1953
Q 1122 2241 2028 2241
L 2688 2241
L 2688 2328
Q 2688 2594 2478 2717
Q 2269 2841 1825 2841
Q 1466 2841 1156 2769
Q 847 2697 581 2553
L 581 3406
Q 941 3494 1303 3539
Q 1666 3584 2028 3584
Q 2975 3584 3395 3211
Q 3816 2838 3816 1997
z
" transform="scale(0.015625)"/>
     </defs>
     <use xlink:href="#DejaVuSans-Bold-4f"/>
     <use xlink:href="#DejaVuSans-Bold-58" transform="translate(34.28125 0)"/>
     <use xlink:href="#DejaVuSans-Bold-9aa" transform="translate(105.46875 0)"/>
     <use xlink:href="#DejaVuSans-Bold-51" transform="translate(172.953125 0)"/>
     <use xlink:href="#DejaVuSans-Bold-3" transform="translate(244.140625 0)"/>
     <use xlink:href="#DejaVuSans-Bold-59" transform="translate(278.953125 0)"/>
     <use xlink:href="#DejaVuSans-Bold-c5" transform="translate(344.140625 0)"/>
     <use xlink:href="#DejaVuSans-Bold-51" transform="translate(411.625 0)"/>
    </g>
   </g>
   <g id="text_6">
    <!-- Evidence gate chặn mọi claim chưa có raw data, số mẫu và fingerprint nguồn -->
    <g style="fill: #b91c1c" transform="translate(161.593594 184.4064) scale(0.09 -0.09)">
     <defs>
      <path id="DejaVuSans-Bold-47" d="M 2919 2988
L 2919 4863
L 4044 4863
L 4044 0
L 2919 0
L 2919 506
Q 2688 197 2409 53
Q 2131 -91 1766 -91
Q 1119 -91 703 423
Q 288 938 288 1747
Q 288 2556 703 3070
Q 1119 3584 1766 3584
Q 2128 3584 2408 3439
Q 2688 3294 2919 2988
z
M 2181 722
Q 2541 722 2730 984
Q 2919 1247 2919 1747
Q 2919 2247 2730 2509
Q 2541 2772 2181 2772
Q 1825 2772 1636 2509
Q 1447 2247 1447 1747
Q 1447 1247 1636 984
Q 1825 722 2181 722
z
" transform="scale(0.015625)"/>
      <path id="DejaVuSans-Bold-9b4" d="M 1231 4991
L 1678 4991
Q 1712 4772 1867 4656
Q 2022 4541 2281 4541
Q 2540 4541 2695 4656
Q 2850 4772 2884 4991
L 3331 4991
Q 3312 4541 3040 4302
Q 2769 4063 2281 4063
Q 1794 4063 1522 4302
Q 1250 4541 1231 4991
z
M 2106 1575
Q 1756 1575 1579 1456
Q 1403 1338 1403 1106
Q 1403 894 1545 773
Q 1688 653 1941 653
Q 2256 653 2472 879
Q 2688 1106 2688 1447
L 2688 1575
L 2106 1575
z
M 3816 1997
L 3816 0
L 2688 0
L 2688 519
Q 2463 200 2181 54
Q 1900 -91 1497 -91
Q 953 -91 614 226
Q 275 544 275 1050
Q 275 1666 698 1953
Q 1122 2241 2028 2241
L 2688 2241
L 2688 2328
Q 2688 2594 2478 2717
Q 2269 2841 1825 2841
Q 1466 2841 1156 2769
Q 847 2697 581 2553
L 581 3406
Q 941 3494 1303 3539
Q 1666 3584 2028 3584
Q 2975 3584 3395 3211
Q 3816 2838 3816 1997
z
M 1356 -447
L 2475 -447
L 2475 -1359
L 1356 -1359
L 1356 -447
z
" transform="scale(0.015625)"/>
      <path id="DejaVuSans-Bold-9ca" d="M 1637 -447
L 2756 -447
L 2756 -1359
L 1637 -1359
L 1637 -447
z
M 2203 2784
Q 1831 2784 1636 2517
Q 1441 2250 1441 1747
Q 1441 1244 1636 976
Q 1831 709 2203 709
Q 2569 709 2762 976
Q 2956 1244 2956 1747
Q 2956 2250 2762 2517
Q 2569 2784 2203 2784
z
M 2203 3584
Q 3106 3584 3614 3096
Q 4122 2609 4122 1747
Q 4122 884 3614 396
Q 3106 -91 2203 -91
Q 1297 -91 786 396
Q 275 884 275 1747
Q 275 2609 786 3096
Q 1297 3584 2203 3584
z
" transform="scale(0.015625)"/>
      <path id="DejaVuSans-Bold-172" d="M 3437 2909
L 3437 3350
Q 3647 3194 3761 3134
Q 3875 3075 3956 3075
Q 4078 3075 4154 3167
Q 4231 3259 4231 3413
Q 4231 3534 4207 3654
Q 4184 3775 4134 3900
L 4622 3900
Q 4656 3728 4673 3581
Q 4690 3434 4690 3306
Q 4690 2947 4546 2755
Q 4403 2563 4134 2563
Q 3968 2563 3798 2647
Q 3628 2731 3437 2909
z
M 481 1363
L 481 3500
L 1606 3500
L 1606 3150
Q 1606 2866 1603 2436
Q 1600 2006 1600 1863
Q 1600 1441 1622 1255
Q 1644 1069 1697 984
Q 1765 875 1876 815
Q 1987 756 2131 756
Q 2481 756 2681 1025
Q 2881 1294 2881 1772
L 2881 3500
L 4000 3500
L 4000 0
L 2881 0
L 2881 506
Q 2628 200 2345 54
Q 2062 -91 1722 -91
Q 1115 -91 798 281
Q 481 653 481 1363
z
" transform="scale(0.015625)"/>
      <path id="DejaVuSans-Bold-b5" d="M 2203 2784
Q 1831 2784 1636 2517
Q 1441 2250 1441 1747
Q 1441 1244 1636 976
Q 1831 709 2203 709
Q 2569 709 2762 976
Q 2956 1244 2956 1747
Q 2956 2250 2762 2517
Q 2569 2784 2203 2784
z
M 2203 3584
Q 3106 3584 3614 3096
Q 4122 2609 4122 1747
Q 4122 884 3614 396
Q 3106 -91 2203 -91
Q 1297 -91 786 396
Q 275 884 275 1747
Q 275 2609 786 3096
Q 1297 3584 2203 3584
z
M 2694 5119
L 3578 5119
L 2425 3944
L 1813 3944
L 2694 5119
z
" transform="scale(0.015625)"/>
      <path id="DejaVuSans-Bold-f" d="M 653 1209
L 1778 1209
L 1778 256
L 1006 -909
L 341 -909
L 653 256
L 653 1209
z
" transform="scale(0.015625)"/>
      <path id="DejaVuSans-Bold-9a8" d="M 2106 1575
Q 1756 1575 1579 1456
Q 1403 1338 1403 1106
Q 1403 894 1545 773
Q 1688 653 1941 653
Q 2256 653 2472 879
Q 2688 1106 2688 1447
L 2688 1575
L 2106 1575
z
M 3816 1997
L 3816 0
L 2688 0
L 2688 519
Q 2463 200 2181 54
Q 1900 -91 1497 -91
Q 953 -91 614 226
Q 275 544 275 1050
Q 275 1666 698 1953
Q 1122 2241 2028 2241
L 2688 2241
L 2688 2328
Q 2688 2594 2478 2717
Q 2269 2841 1825 2841
Q 1466 2841 1156 2769
Q 847 2697 581 2553
L 581 3406
Q 941 3494 1303 3539
Q 1666 3584 2028 3584
Q 2975 3584 3395 3211
Q 3816 2838 3816 1997
z
M 1669 4772
L 2631 4772
L 3328 3947
L 2772 3947
L 2150 4450
L 1528 3947
L 972 3947
L 1669 4772
z
M 2162 4997
L 1987 5106
Q 1978 5113 1956 5125
Q 1815 5206 1728 5206
Q 1628 5206 1565 5112
Q 1503 5019 1503 4863
L 1503 4844
L 1068 4844
Q 1068 4859 1071 4890
Q 1075 4922 1075 4938
Q 1075 5269 1242 5472
Q 1409 5675 1681 5675
Q 1797 5675 1912 5636
Q 2028 5597 2150 5522
L 2334 5400
Q 2400 5356 2461 5332
Q 2522 5309 2572 5309
Q 2687 5309 2748 5403
Q 2809 5497 2809 5675
L 3243 5675
Q 3243 5656 3240 5625
Q 3237 5594 3237 5578
Q 3237 5247 3070 5045
Q 2903 4844 2631 4844
Q 2512 4844 2402 4878
Q 2293 4913 2162 4997
z
" transform="scale(0.015625)"/>
      <path id="DejaVuSans-Bold-13ab" d="M 3078 4863
L 4206 4863
L 4206 3950
L 3078 3950
L 3078 4863
z
M 2847 4863
L 2847 4128
L 2228 4128
Q 1994 4128 1903 4042
Q 1813 3956 1813 3744
L 1813 3500
L 4206 3500
L 4206 0
L 3078 0
L 3078 2700
L 1813 2700
L 1813 0
L 684 0
L 684 2700
L 134 2700
L 134 3500
L 684 3500
L 684 3744
Q 684 4316 1003 4589
Q 1322 4863 1991 4863
L 2847 4863
z
" transform="scale(0.015625)"/>
      <path id="DejaVuSans-Bold-53" d="M 1656 506
L 1656 -1331
L 538 -1331
L 538 3500
L 1656 3500
L 1656 2988
Q 1888 3294 2169 3439
Q 2450 3584 2816 3584
Q 3463 3584 3878 3070
Q 4294 2556 4294 1747
Q 4294 938 3878 423
Q 3463 -91 2816 -91
Q 2450 -91 2169 54
Q 1888 200 1656 506
z
M 2400 2772
Q 2041 2772 1848 2508
Q 1656 2244 1656 1747
Q 1656 1250 1848 986
Q 2041 722 2400 722
Q 2759 722 2948 984
Q 3138 1247 3138 1747
Q 3138 2247 2948 2509
Q 2759 2772 2400 2772
z
" transform="scale(0.015625)"/>
      <path id="DejaVuSans-Bold-9d0" d="M 2203 2784
Q 1831 2784 1636 2517
Q 1441 2250 1441 1747
Q 1441 1244 1636 976
Q 1831 709 2203 709
Q 2569 709 2762 976
Q 2956 1244 2956 1747
Q 2956 2250 2762 2517
Q 2569 2784 2203 2784
z
M 2203 3584
Q 3106 3584 3614 3096
Q 4122 2609 4122 1747
Q 4122 884 3614 396
Q 3106 -91 2203 -91
Q 1297 -91 786 396
Q 275 884 275 1747
Q 275 2609 786 3096
Q 1297 3584 2203 3584
z
M 1704 4779
L 2666 4779
L 3363 3954
L 2807 3954
L 2185 4457
L 1563 3954
L 1007 3954
L 1704 4779
z
M 3291 5591
L 3909 4766
L 3297 4766
L 2406 5591
L 3291 5591
z
" transform="scale(0.015625)"/>
     </defs>
     <use xlink:href="#DejaVuSans-Bold-28"/>
     <use xlink:href="#DejaVuSans-Bold-59" transform="translate(68.3125 0)"/>
     <use xlink:href="#DejaVuSans-Bold-4c" transform="translate(133.5 0)"/>
     <use xlink:href="#DejaVuSans-Bold-47" transform="translate(167.78125 0)"/>
     <use xlink:href="#DejaVuSans-Bold-48" transform="translate(239.359375 0)"/>
     <use xlink:href="#DejaVuSans-Bold-51" transform="translate(307.1875 0)"/>
     <use xlink:href="#DejaVuSans-Bold-46" transform="translate(378.375 0)"/>
     <use xlink:href="#DejaVuSans-Bold-48" transform="translate(437.65625 0)"/>
     <use xlink:href="#DejaVuSans-Bold-3" transform="translate(505.484375 0)"/>
     <use xlink:href="#DejaVuSans-Bold-4a" transform="translate(540.296875 0)"/>
     <use xlink:href="#DejaVuSans-Bold-44" transform="translate(611.875 0)"/>
     <use xlink:href="#DejaVuSans-Bold-57" transform="translate(679.359375 0)"/>
     <use xlink:href="#DejaVuSans-Bold-48" transform="translate(727.15625 0)"/>
     <use xlink:href="#DejaVuSans-Bold-3" transform="translate(794.984375 0)"/>
     <use xlink:href="#DejaVuSans-Bold-46" transform="translate(829.796875 0)"/>
     <use xlink:href="#DejaVuSans-Bold-4b" transform="translate(889.078125 0)"/>
     <use xlink:href="#DejaVuSans-Bold-9b4" transform="translate(960.265625 0)"/>
     <use xlink:href="#DejaVuSans-Bold-51" transform="translate(1027.75 0)"/>
     <use xlink:href="#DejaVuSans-Bold-3" transform="translate(1098.9375 0)"/>
     <use xlink:href="#DejaVuSans-Bold-50" transform="translate(1133.75 0)"/>
     <use xlink:href="#DejaVuSans-Bold-9ca" transform="translate(1237.953125 0)"/>
     <use xlink:href="#DejaVuSans-Bold-4c" transform="translate(1306.65625 0)"/>
     <use xlink:href="#DejaVuSans-Bold-3" transform="translate(1340.9375 0)"/>
     <use xlink:href="#DejaVuSans-Bold-46" transform="translate(1375.75 0)"/>
     <use xlink:href="#DejaVuSans-Bold-4f" transform="translate(1435.03125 0)"/>
     <use xlink:href="#DejaVuSans-Bold-44" transform="translate(1469.3125 0)"/>
     <use xlink:href="#DejaVuSans-Bold-4c" transform="translate(1536.796875 0)"/>
     <use xlink:href="#DejaVuSans-Bold-50" transform="translate(1571.078125 0)"/>
     <use xlink:href="#DejaVuSans-Bold-3" transform="translate(1675.28125 0)"/>
     <use xlink:href="#DejaVuSans-Bold-46" transform="translate(1710.09375 0)"/>
     <use xlink:href="#DejaVuSans-Bold-4b" transform="translate(1769.375 0)"/>
     <use xlink:href="#DejaVuSans-Bold-172" transform="translate(1840.5625 0)"/>
     <use xlink:href="#DejaVuSans-Bold-44" transform="translate(1911.75 0)"/>
     <use xlink:href="#DejaVuSans-Bold-3" transform="translate(1979.234375 0)"/>
     <use xlink:href="#DejaVuSans-Bold-46" transform="translate(2014.046875 0)"/>
     <use xlink:href="#DejaVuSans-Bold-b5" transform="translate(2073.328125 0)"/>
     <use xlink:href="#DejaVuSans-Bold-3" transform="translate(2142.03125 0)"/>
     <use xlink:href="#DejaVuSans-Bold-55" transform="translate(2176.84375 0)"/>
     <use xlink:href="#DejaVuSans-Bold-44" transform="translate(2226.15625 0)"/>
     <use xlink:href="#DejaVuSans-Bold-5a" transform="translate(2293.640625 0)"/>
     <use xlink:href="#DejaVuSans-Bold-3" transform="translate(2386.03125 0)"/>
     <use xlink:href="#DejaVuSans-Bold-47" transform="translate(2420.84375 0)"/>
     <use xlink:href="#DejaVuSans-Bold-44" transform="translate(2492.421875 0)"/>
     <use xlink:href="#DejaVuSans-Bold-57" transform="translate(2559.90625 0)"/>
     <use xlink:href="#DejaVuSans-Bold-44" transform="translate(2607.703125 0)"/>
     <use xlink:href="#DejaVuSans-Bold-f" transform="translate(2675.1875 0)"/>
     <use xlink:href="#DejaVuSans-Bold-3" transform="translate(2713.171875 0)"/>
     <use xlink:href="#DejaVuSans-Bold-56" transform="translate(2747.984375 0)"/>
     <use xlink:href="#DejaVuSans-Bold-9ce" transform="translate(2807.5 0)"/>
     <use xlink:href="#DejaVuSans-Bold-3" transform="translate(2876.203125 0)"/>
     <use xlink:href="#DejaVuSans-Bold-50" transform="translate(2911.015625 0)"/>
     <use xlink:href="#DejaVuSans-Bold-9a8" transform="translate(3015.21875 0)"/>
     <use xlink:href="#DejaVuSans-Bold-58" transform="translate(3082.703125 0)"/>
     <use xlink:href="#DejaVuSans-Bold-3" transform="translate(3153.890625 0)"/>
     <use xlink:href="#DejaVuSans-Bold-59" transform="translate(3188.703125 0)"/>
     <use xlink:href="#DejaVuSans-Bold-a2" transform="translate(3253.890625 0)"/>
     <use xlink:href="#DejaVuSans-Bold-3" transform="translate(3321.375 0)"/>
     <use xlink:href="#DejaVuSans-Bold-13ab" transform="translate(3356.1875 0)"/>
     <use xlink:href="#DejaVuSans-Bold-51" transform="translate(3430.3125 0)"/>
     <use xlink:href="#DejaVuSans-Bold-4a" transform="translate(3501.5 0)"/>
     <use xlink:href="#DejaVuSans-Bold-48" transform="translate(3573.078125 0)"/>
     <use xlink:href="#DejaVuSans-Bold-55" transform="translate(3640.90625 0)"/>
     <use xlink:href="#DejaVuSans-Bold-53" transform="translate(3690.21875 0)"/>
     <use xlink:href="#DejaVuSans-Bold-55" transform="translate(3761.796875 0)"/>
     <use xlink:href="#DejaVuSans-Bold-4c" transform="translate(3811.109375 0)"/>
     <use xlink:href="#DejaVuSans-Bold-51" transform="translate(3845.390625 0)"/>
     <use xlink:href="#DejaVuSans-Bold-57" transform="translate(3916.578125 0)"/>
     <use xlink:href="#DejaVuSans-Bold-3" transform="translate(3964.375 0)"/>
     <use xlink:href="#DejaVuSans-Bold-51" transform="translate(3999.1875 0)"/>
     <use xlink:href="#DejaVuSans-Bold-4a" transform="translate(4070.375 0)"/>
     <use xlink:href="#DejaVuSans-Bold-58" transform="translate(4141.953125 0)"/>
     <use xlink:href="#DejaVuSans-Bold-9d0" transform="translate(4213.140625 0)"/>
     <use xlink:href="#DejaVuSans-Bold-51" transform="translate(4281.84375 0)"/>
    </g>
   </g>
  </g>
 </g>
 <defs>
  <clipPath id="p9cba756555">
   <rect x="7.2" y="7.2" width="700.56" height="210.96"/>
  </clipPath>
 </defs>
</svg>
