<?xml version="1.0" encoding="utf-8" standalone="no"?>
<!DOCTYPE svg PUBLIC "-//W3C//DTD SVG 1.1//EN"
  "http://www.w3.org/Graphics/SVG/1.1/DTD/svg11.dtd">
<svg xmlns:xlink="http://www.w3.org/1999/xlink" width="714.96pt" height="369.36pt" viewBox="0 0 714.96 369.36" xmlns="http://www.w3.org/2000/svg" version="1.1">
 <metadata>
  <rdf:RDF xmlns:dc="http://purl.org/dc/elements/1.1/" xmlns:cc="http://creativecommons.org/ns#" xmlns:rdf="http://www.w3.org/1999/02/22-rdf-syntax-ns#">
   <cc:Work>
    <dc:type rdf:resource="http://purl.org/dc/dcmitype/StillImage"/>
    <dc:date>2026-07-11T20:45:04.702831</dc:date>
    <dc:format>image/svg+xml</dc:format>
    <dc:creator>
     <cc:Agent>
      <dc:title>Matplotlib v3.11.0, https://matplotlib.org/</dc:title>
     </cc:Agent>
    </dc:creator>
   </cc:Work>
  </rdf:RDF>
 </metadata>
 <defs>
  <style type="text/css">*{stroke-linejoin: round; stroke-linecap: butt}</style>
 </defs>
 <g id="figure_1">
  <g id="patch_1">
   <path d="M 0 369.36
L 714.96 369.36
L 714.96 0
L 0 0
z
" style="fill: #ffffff"/>
  </g>
  <g id="axes_1">
   <g id="patch_2">
    <path d="M 28.2168 92.3904
L 686.7432 92.3904
L 686.7432 35.5968
L 28.2168 35.5968
z
" clip-path="url(#p6c88c5106f)" style="fill: #f8fafc; stroke: #cbd5e1; stroke-width: 1.2; stroke-linejoin: miter"/>
   </g>
   <g id="patch_3">
    <path d="M 161.3232 79.9668
L 301.4352 79.9668
L 301.4352 48.0204
L 161.3232 48.0204
z
" clip-path="url(#p6c88c5106f)" style="fill: #4c78a8; opacity: 0.16; stroke: #4c78a8; stroke-width: 1.4; stroke-linejoin: miter"/>
   </g>
   <g id="patch_4">
    <path d="M 332.9604 79.9668
L 473.0724 79.9668
L 473.0724 48.0204
L 332.9604 48.0204
z
" clip-path="url(#p6c88c5106f)" style="fill: #4c78a8; opacity: 0.16; stroke: #4c78a8; stroke-width: 1.4; stroke-linejoin: miter"/>
   </g>
   <g id="patch_5">
    <path d="M 28.2168 170.4816
L 686.7432 170.4816
L 686.7432 113.688
L 28.2168 113.688
z
" clip-path="url(#p6c88c5106f)" style="fill: #f8fafc; stroke: #cbd5e1; stroke-width: 1.2; stroke-linejoin: miter"/>
   </g>
   <g id="patch_6">
    <path d="M 161.3232 158.058
L 301.4352 158.058
L 301.4352 126.1116
L 161.3232 126.1116
z
" clip-path="url(#p6c88c5106f)" style="fill: #59a14f; opacity: 0.16; stroke: #59a14f; stroke-width: 1.4; stroke-linejoin: miter"/>
   </g>
   <g id="patch_7">
    <path d="M 332.9604 158.058
L 473.0724 158.058
L 473.0724 126.1116
L 332.9604 126.1116
z
" clip-path="url(#p6c88c5106f)" style="fill: #59a14f; opacity: 0.16; stroke: #59a14f; stroke-width: 1.4; stroke-linejoin: miter"/>
   </g>
   <g id="patch_8">
    <path d="M 504.5976 158.058
L 644.7096 158.058
L 644.7096 126.1116
L 504.5976 126.1116
z
" clip-path="url(#p6c88c5106f)" style="fill: #59a14f; opacity: 0.16; stroke: #59a14f; stroke-width: 1.4; stroke-linejoin: miter"/>
   </g>
   <g id="patch_9">
    <path d="M 28.2168 248.5728
L 686.7432 248.5728
L 686.7432 191.7792
L 28.2168 191.7792
z
" clip-path="url(#p6c88c5106f)" style="fill: #f8fafc; stroke: #cbd5e1; stroke-width: 1.2; stroke-linejoin: miter"/>
   </g>
   <g id="patch_10">
    <path d="M 161.3232 236.1492
L 301.4352 236.1492
L 301.4352 204.2028
L 161.3232 204.2028
z
" clip-path="url(#p6c88c5106f)" style="fill: #f28e2b; opacity: 0.16; stroke: #f28e2b; stroke-width: 1.4; stroke-linejoin: miter"/>
   </g>
   <g id="patch_11">
    <path d="M 332.9604 236.1492
L 473.0724 236.1492
L 473.0724 204.2028
L 332.9604 204.2028
z
" clip-path="url(#p6c88c5106f)" style="fill: #f28e2b; opacity: 0.16; stroke: #f28e2b; stroke-width: 1.4; stroke-linejoin: miter"/>
   </g>
   <g id="patch_12">
    <path d="M 504.5976 236.1492
L 644.7096 236.1492
L 644.7096 204.2028
L 504.5976 204.2028
z
" clip-path="url(#p6c88c5106f)" style="fill: #f28e2b; opacity: 0.16; stroke: #f28e2b; stroke-width: 1.4; stroke-linejoin: miter"/>
   </g>
   <g id="patch_13">
    <path d="M 28.2168 326.664
L 686.7432 326.664
L 686.7432 269.8704
L 28.2168 269.8704
z
" clip-path="url(#p6c88c5106f)" style="fill: #f8fafc; stroke: #cbd5e1; stroke-width: 1.2; stroke-linejoin: miter"/>
   </g>
   <g id="patch_14">
    <path d="M 161.3232 314.2404
L 301.4352 314.2404
L 301.4352 282.294
L 161.3232 282.294
z
" clip-path="url(#p6c88c5106f)" style="fill: #b07aa1; opacity: 0.16; stroke: #b07aa1; stroke-width: 1.4; stroke-linejoin: miter"/>
   </g>
   <g id="patch_15">
    <path d="M 332.9604 314.2404
L 473.0724 314.2404
L 473.0724 282.294
L 332.9604 282.294
z
" clip-path="url(#p6c88c5106f)" style="fill: #b07aa1; opacity: 0.16; stroke: #b07aa1; stroke-width: 1.4; stroke-linejoin: miter"/>
   </g>
   <g id="patch_16">
    <path d="M 504.5976 314.2404
L 644.7096 314.2404
L 644.7096 282.294
L 504.5976 282.294
z
" clip-path="url(#p6c88c5106f)" style="fill: #b07aa1; opacity: 0.16; stroke: #b07aa1; stroke-width: 1.4; stroke-linejoin: miter"/>
   </g>
   <g id="patch_17">
    <path d="M 539.6256 344.412
L 686.7432 344.412
L 686.7432 319.5648
L 539.6256 319.5648
z
" clip-path="url(#p6c88c5106f)" style="fill: #fee2e2; stroke: #e15759; stroke-width: 1.5; stroke-linejoin: miter"/>
   </g>
   <g id="text_1">
    <!-- GIAO DIỆN -->
    <g style="fill: #4c78a8" transform="translate(42.228 53.881774) scale(0.09 -0.09)">
     <defs>
      <path id="DejaVuSans-Bold-2a" d="M 4781 347
Q 4331 128 3847 18
Q 3363 -91 2847 -91
Q 1681 -91 1000 561
Q 319 1213 319 2328
Q 319 3456 1012 4103
Q 1706 4750 2913 4750
Q 3378 4750 3804 4662
Q 4231 4575 4609 4403
L 4609 3438
Q 4219 3659 3833 3768
Q 3447 3878 3059 3878
Q 2341 3878 1952 3476
Q 1563 3075 1563 2328
Q 1563 1588 1938 1184
Q 2313 781 3003 781
Q 3191 781 3352 804
Q 3513 828 3641 878
L 3641 1784
L 2906 1784
L 2906 2591
L 4781 2591
L 4781 347
z
" transform="scale(0.015625)"/>
      <path id="DejaVuSans-Bold-2c" d="M 588 4666
L 1791 4666
L 1791 0
L 588 0
L 588 4666
z
" transform="scale(0.015625)"/>
      <path id="DejaVuSans-Bold-24" d="M 3419 850
L 1538 850
L 1241 0
L 31 0
L 1759 4666
L 3194 4666
L 4922 0
L 3713 0
L 3419 850
z
M 1838 1716
L 3116 1716
L 2478 3572
L 1838 1716
z
" transform="scale(0.015625)"/>
      <path id="DejaVuSans-Bold-32" d="M 2719 3878
Q 2169 3878 1866 3472
Q 1563 3066 1563 2328
Q 1563 1594 1866 1187
Q 2169 781 2719 781
Q 3272 781 3575 1187
Q 3878 1594 3878 2328
Q 3878 3066 3575 3472
Q 3272 3878 2719 3878
z
M 2719 4750
Q 3844 4750 4481 4106
Q 5119 3463 5119 2328
Q 5119 1197 4481 553
Q 3844 -91 2719 -91
Q 1597 -91 958 553
Q 319 1197 319 2328
Q 319 3463 958 4106
Q 1597 4750 2719 4750
z
" transform="scale(0.015625)"/>
      <path id="DejaVuSans-Bold-3" transform="scale(0.015625)"/>
      <path id="DejaVuSans-Bold-27" d="M 1791 3756
L 1791 909
L 2222 909
Q 2959 909 3348 1275
Q 3738 1641 3738 2338
Q 3738 3031 3350 3393
Q 2963 3756 2222 3756
L 1791 3756
z
M 588 4666
L 1856 4666
Q 2919 4666 3439 4514
Q 3959 4363 4331 4000
Q 4659 3684 4818 3271
Q 4978 2859 4978 2338
Q 4978 1809 4818 1395
Q 4659 981 4331 666
Q 3956 303 3431 151
Q 2906 0 1856 0
L 588 0
L 588 4666
z
" transform="scale(0.015625)"/>
      <path id="DejaVuSans-Bold-9c3" d="M 1597 -447
L 2716 -447
L 2716 -1359
L 1597 -1359
L 1597 -447
z
M 588 4666
L 3834 4666
L 3834 3756
L 1791 3756
L 1791 2888
L 3713 2888
L 3713 1978
L 1791 1978
L 1791 909
L 3903 909
L 3903 0
L 588 0
L 588 4666
z
M 1682 5935
L 2644 5935
L 3341 5110
L 2785 5110
L 2163 5613
L 1541 5110
L 985 5110
L 1682 5935
z
" transform="scale(0.015625)"/>
      <path id="DejaVuSans-Bold-31" d="M 588 4666
L 1931 4666
L 3628 1466
L 3628 4666
L 4769 4666
L 4769 0
L 3425 0
L 1728 3200
L 1728 0
L 588 0
L 588 4666
z
" transform="scale(0.015625)"/>
     </defs>
     <use xlink:href="#DejaVuSans-Bold-2a"/>
     <use xlink:href="#DejaVuSans-Bold-2c" transform="translate(82.078125 0)"/>
     <use xlink:href="#DejaVuSans-Bold-24" transform="translate(119.28125 0)"/>
     <use xlink:href="#DejaVuSans-Bold-32" transform="translate(196.671875 0)"/>
     <use xlink:href="#DejaVuSans-Bold-3" transform="translate(281.6875 0)"/>
     <use xlink:href="#DejaVuSans-Bold-27" transform="translate(316.5 0)"/>
     <use xlink:href="#DejaVuSans-Bold-2c" transform="translate(399.515625 0)"/>
     <use xlink:href="#DejaVuSans-Bold-9c3" transform="translate(436.71875 0)"/>
     <use xlink:href="#DejaVuSans-Bold-31" transform="translate(505.03125 0)"/>
    </g>
   </g>
   <g id="text_2">
    <!-- Ứng dụng React Native -->
    <g transform="translate(181.759786 66.913815) scale(0.085 -0.085)">
     <defs>
      <path id="DejaVuSans-9e5" d="M 2516 5935
L 3094 5935
L 2381 5110
L 1903 5110
L 2516 5935
z
M 540 4729
L 1175 4729
L 1175 1894
Q 1175 1144 1446 814
Q 1718 485 2328 485
Q 2934 485 3206 814
Q 3478 1144 3478 1894
L 3478 4729
L 4112 4729
L 4112 1816
Q 4112 904 3660 438
Q 3209 -28 2328 -28
Q 1443 -28 991 438
Q 540 904 540 1816
L 540 4729
z
M 3863 4035
L 3863 4407
Q 4054 4266 4191 4199
Q 4329 4132 4425 4132
Q 4569 4132 4641 4218
Q 4713 4304 4713 4472
Q 4713 4572 4689 4669
Q 4666 4766 4619 4863
L 5035 4863
Q 5066 4744 5081 4638
Q 5097 4532 5097 4438
Q 5097 4057 4961 3877
Q 4826 3697 4535 3697
Q 4385 3697 4221 3780
Q 4057 3863 3863 4035
z
" transform="scale(0.015625)"/>
      <path id="DejaVuSans-51" d="M 3513 2113
L 3513 0
L 2938 0
L 2938 2094
Q 2938 2591 2744 2837
Q 2550 3084 2163 3084
Q 1697 3084 1428 2787
Q 1159 2491 1159 1978
L 1159 0
L 581 0
L 581 3500
L 1159 3500
L 1159 2956
Q 1366 3272 1645 3428
Q 1925 3584 2291 3584
Q 2894 3584 3203 3211
Q 3513 2838 3513 2113
z
" transform="scale(0.015625)"/>
      <path id="DejaVuSans-4a" d="M 2906 1791
Q 2906 2416 2648 2759
Q 2391 3103 1925 3103
Q 1463 3103 1205 2759
Q 947 2416 947 1791
Q 947 1169 1205 825
Q 1463 481 1925 481
Q 2391 481 2648 825
Q 2906 1169 2906 1791
z
M 3481 434
Q 3481 -459 3084 -895
Q 2688 -1331 1869 -1331
Q 1566 -1331 1297 -1286
Q 1028 -1241 775 -1147
L 775 -588
Q 1028 -725 1275 -790
Q 1522 -856 1778 -856
Q 2344 -856 2625 -561
Q 2906 -266 2906 331
L 2906 616
Q 2728 306 2450 153
Q 2172 0 1784 0
Q 1141 0 747 490
Q 353 981 353 1791
Q 353 2603 747 3093
Q 1141 3584 1784 3584
Q 2172 3584 2450 3431
Q 2728 3278 2906 2969
L 2906 3500
L 3481 3500
L 3481 434
z
" transform="scale(0.015625)"/>
      <path id="DejaVuSans-3" transform="scale(0.015625)"/>
      <path id="DejaVuSans-47" d="M 2906 2969
L 2906 4863
L 3481 4863
L 3481 0
L 2906 0
L 2906 525
Q 2725 213 2448 61
Q 2172 -91 1784 -91
Q 1150 -91 751 415
Q 353 922 353 1747
Q 353 2572 751 3078
Q 1150 3584 1784 3584
Q 2172 3584 2448 3432
Q 2725 3281 2906 2969
z
M 947 1747
Q 947 1113 1208 752
Q 1469 391 1925 391
Q 2381 391 2643 752
Q 2906 1113 2906 1747
Q 2906 2381 2643 2742
Q 2381 3103 1925 3103
Q 1469 3103 1208 2742
Q 947 2381 947 1747
z
" transform="scale(0.015625)"/>
      <path id="DejaVuSans-9e2" d="M 544 1381
L 544 3500
L 1119 3500
L 1119 1403
Q 1119 906 1312 657
Q 1506 409 1894 409
Q 2359 409 2629 706
Q 2900 1003 2900 1516
L 2900 3500
L 3475 3500
L 3475 0
L 2900 0
L 2900 538
Q 2691 219 2414 64
Q 2138 -91 1772 -91
Q 1169 -91 856 284
Q 544 659 544 1381
z
M 1991 3584
L 1991 3584
z
M 1690 -441
L 2265 -441
L 2265 -1172
L 1690 -1172
L 1690 -441
z
" transform="scale(0.015625)"/>
      <path id="DejaVuSans-35" d="M 2841 2188
Q 3044 2119 3236 1894
Q 3428 1669 3622 1275
L 4263 0
L 3584 0
L 2988 1197
Q 2756 1666 2539 1819
Q 2322 1972 1947 1972
L 1259 1972
L 1259 0
L 628 0
L 628 4666
L 2053 4666
Q 2853 4666 3247 4331
Q 3641 3997 3641 3322
Q 3641 2881 3436 2590
Q 3231 2300 2841 2188
z
M 1259 4147
L 1259 2491
L 2053 2491
Q 2509 2491 2742 2702
Q 2975 2913 2975 3322
Q 2975 3731 2742 3939
Q 2509 4147 2053 4147
L 1259 4147
z
" transform="scale(0.015625)"/>
      <path id="DejaVuSans-48" d="M 3597 1894
L 3597 1613
L 953 1613
Q 991 1019 1311 708
Q 1631 397 2203 397
Q 2534 397 2845 478
Q 3156 559 3463 722
L 3463 178
Q 3153 47 2828 -22
Q 2503 -91 2169 -91
Q 1331 -91 842 396
Q 353 884 353 1716
Q 353 2575 817 3079
Q 1281 3584 2069 3584
Q 2775 3584 3186 3129
Q 3597 2675 3597 1894
z
M 3022 2063
Q 3016 2534 2758 2815
Q 2500 3097 2075 3097
Q 1594 3097 1305 2825
Q 1016 2553 972 2059
L 3022 2063
z
" transform="scale(0.015625)"/>
      <path id="DejaVuSans-44" d="M 2194 1759
Q 1497 1759 1228 1600
Q 959 1441 959 1056
Q 959 750 1161 570
Q 1363 391 1709 391
Q 2188 391 2477 730
Q 2766 1069 2766 1631
L 2766 1759
L 2194 1759
z
M 3341 1997
L 3341 0
L 2766 0
L 2766 531
Q 2569 213 2275 61
Q 1981 -91 1556 -91
Q 1019 -91 701 211
Q 384 513 384 1019
Q 384 1609 779 1909
Q 1175 2209 1959 2209
L 2766 2209
L 2766 2266
Q 2766 2663 2505 2880
Q 2244 3097 1772 3097
Q 1472 3097 1187 3025
Q 903 2953 641 2809
L 641 3341
Q 956 3463 1253 3523
Q 1550 3584 1831 3584
Q 2591 3584 2966 3190
Q 3341 2797 3341 1997
z
" transform="scale(0.015625)"/>
      <path id="DejaVuSans-46" d="M 3122 3366
L 3122 2828
Q 2878 2963 2633 3030
Q 2388 3097 2138 3097
Q 1578 3097 1268 2742
Q 959 2388 959 1747
Q 959 1106 1268 751
Q 1578 397 2138 397
Q 2388 397 2633 464
Q 2878 531 3122 666
L 3122 134
Q 2881 22 2623 -34
Q 2366 -91 2075 -91
Q 1284 -91 818 406
Q 353 903 353 1747
Q 353 2603 823 3093
Q 1294 3584 2113 3584
Q 2378 3584 2631 3529
Q 2884 3475 3122 3366
z
" transform="scale(0.015625)"/>
      <path id="DejaVuSans-57" d="M 1172 4494
L 1172 3500
L 2356 3500
L 2356 3053
L 1172 3053
L 1172 1153
Q 1172 725 1289 603
Q 1406 481 1766 481
L 2356 481
L 2356 0
L 1766 0
Q 1100 0 847 248
Q 594 497 594 1153
L 594 3053
L 172 3053
L 172 3500
L 594 3500
L 594 4494
L 1172 4494
z
" transform="scale(0.015625)"/>
      <path id="DejaVuSans-31" d="M 628 4666
L 1478 4666
L 3547 763
L 3547 4666
L 4159 4666
L 4159 0
L 3309 0
L 1241 3903
L 1241 0
L 628 0
L 628 4666
z
" transform="scale(0.015625)"/>
      <path id="DejaVuSans-4c" d="M 603 3500
L 1178 3500
L 1178 0
L 603 0
L 603 3500
z
M 603 4863
L 1178 4863
L 1178 4134
L 603 4134
L 603 4863
z
" transform="scale(0.015625)"/>
      <path id="DejaVuSans-59" d="M 191 3500
L 800 3500
L 1894 563
L 2988 3500
L 3597 3500
L 2284 0
L 1503 0
L 191 3500
z
" transform="scale(0.015625)"/>
     </defs>
     <use xlink:href="#DejaVuSans-9e5"/>
     <use xlink:href="#DejaVuSans-51" transform="translate(85.796875 0)"/>
     <use xlink:href="#DejaVuSans-4a" transform="translate(149.171875 0)"/>
     <use xlink:href="#DejaVuSans-3" transform="translate(212.65625 0)"/>
     <use xlink:href="#DejaVuSans-47" transform="translate(244.4375 0)"/>
     <use xlink:href="#DejaVuSans-9e2" transform="translate(307.921875 0)"/>
     <use xlink:href="#DejaVuSans-51" transform="translate(371.296875 0)"/>
     <use xlink:href="#DejaVuSans-4a" transform="translate(434.671875 0)"/>
     <use xlink:href="#DejaVuSans-3" transform="translate(498.15625 0)"/>
     <use xlink:href="#DejaVuSans-35" transform="translate(529.9375 0)"/>
     <use xlink:href="#DejaVuSans-48" transform="translate(594.9375 0)"/>
     <use xlink:href="#DejaVuSans-44" transform="translate(656.46875 0)"/>
     <use xlink:href="#DejaVuSans-46" transform="translate(717.75 0)"/>
     <use xlink:href="#DejaVuSans-57" transform="translate(772.734375 0)"/>
     <use xlink:href="#DejaVuSans-3" transform="translate(811.9375 0)"/>
     <use xlink:href="#DejaVuSans-31" transform="translate(843.71875 0)"/>
     <use xlink:href="#DejaVuSans-44" transform="translate(918.53125 0)"/>
     <use xlink:href="#DejaVuSans-57" transform="translate(979.8125 0)"/>
     <use xlink:href="#DejaVuSans-4c" transform="translate(1019.015625 0)"/>
     <use xlink:href="#DejaVuSans-59" transform="translate(1046.796875 0)"/>
     <use xlink:href="#DejaVuSans-48" transform="translate(1105.984375 0)"/>
    </g>
   </g>
   <g id="text_3">
    <!-- Admin site -->
    <g transform="translate(380.444916 66.20194) scale(0.085 -0.085)">
     <defs>
      <path id="DejaVuSans-24" d="M 2188 4044
L 1331 1722
L 3047 1722
L 2188 4044
z
M 1831 4666
L 2547 4666
L 4325 0
L 3669 0
L 3244 1197
L 1141 1197
L 716 0
L 50 0
L 1831 4666
z
" transform="scale(0.015625)"/>
      <path id="DejaVuSans-50" d="M 3328 2828
Q 3544 3216 3844 3400
Q 4144 3584 4550 3584
Q 5097 3584 5394 3201
Q 5691 2819 5691 2113
L 5691 0
L 5113 0
L 5113 2094
Q 5113 2597 4934 2840
Q 4756 3084 4391 3084
Q 3944 3084 3684 2787
Q 3425 2491 3425 1978
L 3425 0
L 2847 0
L 2847 2094
Q 2847 2600 2669 2842
Q 2491 3084 2119 3084
Q 1678 3084 1418 2786
Q 1159 2488 1159 1978
L 1159 0
L 581 0
L 581 3500
L 1159 3500
L 1159 2956
Q 1356 3278 1631 3431
Q 1906 3584 2284 3584
Q 2666 3584 2933 3390
Q 3200 3197 3328 2828
z
" transform="scale(0.015625)"/>
      <path id="DejaVuSans-56" d="M 2834 3397
L 2834 2853
Q 2591 2978 2328 3040
Q 2066 3103 1784 3103
Q 1356 3103 1142 2972
Q 928 2841 928 2578
Q 928 2378 1081 2264
Q 1234 2150 1697 2047
L 1894 2003
Q 2506 1872 2764 1633
Q 3022 1394 3022 966
Q 3022 478 2636 193
Q 2250 -91 1575 -91
Q 1294 -91 989 -36
Q 684 19 347 128
L 347 722
Q 666 556 975 473
Q 1284 391 1588 391
Q 1994 391 2212 530
Q 2431 669 2431 922
Q 2431 1156 2273 1281
Q 2116 1406 1581 1522
L 1381 1569
Q 847 1681 609 1914
Q 372 2147 372 2553
Q 372 3047 722 3315
Q 1072 3584 1716 3584
Q 2034 3584 2315 3537
Q 2597 3491 2834 3397
z
" transform="scale(0.015625)"/>
     </defs>
     <use xlink:href="#DejaVuSans-24"/>
     <use xlink:href="#DejaVuSans-47" transform="translate(66.65625 0)"/>
     <use xlink:href="#DejaVuSans-50" transform="translate(130.140625 0)"/>
     <use xlink:href="#DejaVuSans-4c" transform="translate(227.546875 0)"/>
     <use xlink:href="#DejaVuSans-51" transform="translate(255.328125 0)"/>
     <use xlink:href="#DejaVuSans-3" transform="translate(318.703125 0)"/>
     <use xlink:href="#DejaVuSans-56" transform="translate(350.484375 0)"/>
     <use xlink:href="#DejaVuSans-4c" transform="translate(402.578125 0)"/>
     <use xlink:href="#DejaVuSans-57" transform="translate(430.359375 0)"/>
     <use xlink:href="#DejaVuSans-48" transform="translate(469.5625 0)"/>
    </g>
   </g>
   <g id="text_4">
    <!-- DỊCH VỤ ỨNG DỤNG -->
    <g style="fill: #59a14f" transform="translate(42.228 131.972974) scale(0.09 -0.09)">
     <defs>
      <path id="DejaVuSans-Bold-9c7" d="M 622 -447
L 1741 -447
L 1741 -1359
L 622 -1359
L 622 -447
z
M 588 4666
L 1791 4666
L 1791 0
L 588 0
L 588 4666
z
" transform="scale(0.015625)"/>
      <path id="DejaVuSans-Bold-26" d="M 4288 256
Q 3956 84 3597 -3
Q 3238 -91 2847 -91
Q 1681 -91 1000 561
Q 319 1213 319 2328
Q 319 3447 1000 4098
Q 1681 4750 2847 4750
Q 3238 4750 3597 4662
Q 3956 4575 4288 4403
L 4288 3438
Q 3953 3666 3628 3772
Q 3303 3878 2944 3878
Q 2300 3878 1931 3465
Q 1563 3053 1563 2328
Q 1563 1606 1931 1193
Q 2300 781 2944 781
Q 3303 781 3628 887
Q 3953 994 4288 1222
L 4288 256
z
" transform="scale(0.015625)"/>
      <path id="DejaVuSans-Bold-2b" d="M 588 4666
L 1791 4666
L 1791 2888
L 3566 2888
L 3566 4666
L 4769 4666
L 4769 0
L 3566 0
L 3566 1978
L 1791 1978
L 1791 0
L 588 0
L 588 4666
z
" transform="scale(0.015625)"/>
      <path id="DejaVuSans-Bold-39" d="M 31 4666
L 1241 4666
L 2478 1222
L 3713 4666
L 4922 4666
L 3194 0
L 1759 0
L 31 4666
z
" transform="scale(0.015625)"/>
      <path id="DejaVuSans-Bold-9e1" d="M 2031 -447
L 3150 -447
L 3150 -1359
L 2031 -1359
L 2031 -447
z
M 588 4666
L 1791 4666
L 1791 1869
Q 1791 1291 1980 1042
Q 2169 794 2597 794
Q 3028 794 3217 1042
Q 3406 1291 3406 1869
L 3406 4666
L 4609 4666
L 4609 1869
Q 4609 878 4112 393
Q 3616 -91 2597 -91
Q 1581 -91 1084 393
Q 588 878 588 1869
L 588 4666
z
" transform="scale(0.015625)"/>
      <path id="DejaVuSans-Bold-9e5" d="M 2681 5935
L 3566 5935
L 2675 5110
L 2063 5110
L 2681 5935
z
M 4078 3878
L 4078 4319
Q 4288 4163 4402 4103
Q 4516 4044 4597 4044
Q 4719 4044 4795 4136
Q 4872 4228 4872 4382
Q 4872 4503 4848 4623
Q 4825 4744 4775 4869
L 5263 4869
Q 5297 4697 5314 4550
Q 5331 4403 5331 4275
Q 5331 3916 5187 3724
Q 5044 3532 4775 3532
Q 4609 3532 4439 3616
Q 4269 3700 4078 3878
z
M 585 4666
L 1788 4666
L 1788 1869
Q 1788 1291 1977 1042
Q 2166 794 2594 794
Q 3025 794 3214 1042
Q 3403 1291 3403 1869
L 3403 4666
L 4606 4666
L 4606 1869
Q 4606 878 4109 393
Q 3613 -91 2594 -91
Q 1578 -91 1081 393
Q 585 878 585 1869
L 585 4666
z
" transform="scale(0.015625)"/>
     </defs>
     <use xlink:href="#DejaVuSans-Bold-27"/>
     <use xlink:href="#DejaVuSans-Bold-9c7" transform="translate(83.015625 0)"/>
     <use xlink:href="#DejaVuSans-Bold-26" transform="translate(120.21875 0)"/>
     <use xlink:href="#DejaVuSans-Bold-2b" transform="translate(193.609375 0)"/>
     <use xlink:href="#DejaVuSans-Bold-3" transform="translate(277.296875 0)"/>
     <use xlink:href="#DejaVuSans-Bold-39" transform="translate(312.109375 0)"/>
     <use xlink:href="#DejaVuSans-Bold-9e1" transform="translate(389.5 0)"/>
     <use xlink:href="#DejaVuSans-Bold-3" transform="translate(470.703125 0)"/>
     <use xlink:href="#DejaVuSans-Bold-9e5" transform="translate(505.515625 0)"/>
     <use xlink:href="#DejaVuSans-Bold-31" transform="translate(589.0625 0)"/>
     <use xlink:href="#DejaVuSans-Bold-2a" transform="translate(672.75 0)"/>
     <use xlink:href="#DejaVuSans-Bold-3" transform="translate(754.828125 0)"/>
     <use xlink:href="#DejaVuSans-Bold-27" transform="translate(789.640625 0)"/>
     <use xlink:href="#DejaVuSans-Bold-9e1" transform="translate(872.65625 0)"/>
     <use xlink:href="#DejaVuSans-Bold-31" transform="translate(953.859375 0)"/>
     <use xlink:href="#DejaVuSans-Bold-2a" transform="translate(1037.546875 0)"/>
    </g>
   </g>
   <g id="text_5">
    <!-- Flask API -->
    <g transform="translate(212.400294 144.29314) scale(0.085 -0.085)">
     <defs>
      <path id="DejaVuSans-29" d="M 628 4666
L 3309 4666
L 3309 4134
L 1259 4134
L 1259 2759
L 3109 2759
L 3109 2228
L 1259 2228
L 1259 0
L 628 0
L 628 4666
z
" transform="scale(0.015625)"/>
      <path id="DejaVuSans-4f" d="M 603 4863
L 1178 4863
L 1178 0
L 603 0
L 603 4863
z
" transform="scale(0.015625)"/>
      <path id="DejaVuSans-4e" d="M 581 4863
L 1159 4863
L 1159 1991
L 2875 3500
L 3609 3500
L 1753 1863
L 3688 0
L 2938 0
L 1159 1709
L 1159 0
L 581 0
L 581 4863
z
" transform="scale(0.015625)"/>
      <path id="DejaVuSans-33" d="M 1259 4147
L 1259 2394
L 2053 2394
Q 2494 2394 2734 2622
Q 2975 2850 2975 3272
Q 2975 3691 2734 3919
Q 2494 4147 2053 4147
L 1259 4147
z
M 628 4666
L 2053 4666
Q 2838 4666 3239 4311
Q 3641 3956 3641 3272
Q 3641 2581 3239 2228
Q 2838 1875 2053 1875
L 1259 1875
L 1259 0
L 628 0
L 628 4666
z
" transform="scale(0.015625)"/>
      <path id="DejaVuSans-2c" d="M 628 4666
L 1259 4666
L 1259 0
L 628 0
L 628 4666
z
" transform="scale(0.015625)"/>
     </defs>
     <use xlink:href="#DejaVuSans-29"/>
     <use xlink:href="#DejaVuSans-4f" transform="translate(57.515625 0)"/>
     <use xlink:href="#DejaVuSans-44" transform="translate(85.296875 0)"/>
     <use xlink:href="#DejaVuSans-56" transform="translate(146.578125 0)"/>
     <use xlink:href="#DejaVuSans-4e" transform="translate(198.671875 0)"/>
     <use xlink:href="#DejaVuSans-3" transform="translate(256.578125 0)"/>
     <use xlink:href="#DejaVuSans-24" transform="translate(288.359375 0)"/>
     <use xlink:href="#DejaVuSans-33" transform="translate(356.765625 0)"/>
     <use xlink:href="#DejaVuSans-2c" transform="translate(417.0625 0)"/>
    </g>
   </g>
   <g id="text_6">
    <!-- Auth + RBAC -->
    <g transform="translate(375.123783 144.29314) scale(0.085 -0.085)">
     <defs>
      <path id="DejaVuSans-58" d="M 544 1381
L 544 3500
L 1119 3500
L 1119 1403
Q 1119 906 1312 657
Q 1506 409 1894 409
Q 2359 409 2629 706
Q 2900 1003 2900 1516
L 2900 3500
L 3475 3500
L 3475 0
L 2900 0
L 2900 538
Q 2691 219 2414 64
Q 2138 -91 1772 -91
Q 1169 -91 856 284
Q 544 659 544 1381
z
M 1991 3584
L 1991 3584
z
" transform="scale(0.015625)"/>
      <path id="DejaVuSans-4b" d="M 3513 2113
L 3513 0
L 2938 0
L 2938 2094
Q 2938 2591 2744 2837
Q 2550 3084 2163 3084
Q 1697 3084 1428 2787
Q 1159 2491 1159 1978
L 1159 0
L 581 0
L 581 4863
L 1159 4863
L 1159 2956
Q 1366 3272 1645 3428
Q 1925 3584 2291 3584
Q 2894 3584 3203 3211
Q 3513 2838 3513 2113
z
" transform="scale(0.015625)"/>
      <path id="DejaVuSans-e" d="M 2944 4013
L 2944 2272
L 4684 2272
L 4684 1741
L 2944 1741
L 2944 0
L 2419 0
L 2419 1741
L 678 1741
L 678 2272
L 2419 2272
L 2419 4013
L 2944 4013
z
" transform="scale(0.015625)"/>
      <path id="DejaVuSans-25" d="M 1259 2228
L 1259 519
L 2272 519
Q 2781 519 3026 730
Q 3272 941 3272 1375
Q 3272 1813 3026 2020
Q 2781 2228 2272 2228
L 1259 2228
z
M 1259 4147
L 1259 2741
L 2194 2741
Q 2656 2741 2882 2914
Q 3109 3088 3109 3444
Q 3109 3797 2882 3972
Q 2656 4147 2194 4147
L 1259 4147
z
M 628 4666
L 2241 4666
Q 2963 4666 3353 4366
Q 3744 4066 3744 3513
Q 3744 3084 3544 2831
Q 3344 2578 2956 2516
Q 3422 2416 3680 2098
Q 3938 1781 3938 1306
Q 3938 681 3513 340
Q 3088 0 2303 0
L 628 0
L 628 4666
z
" transform="scale(0.015625)"/>
      <path id="DejaVuSans-26" d="M 4122 4306
L 4122 3641
Q 3803 3938 3442 4084
Q 3081 4231 2675 4231
Q 1875 4231 1450 3742
Q 1025 3253 1025 2328
Q 1025 1406 1450 917
Q 1875 428 2675 428
Q 3081 428 3442 575
Q 3803 722 4122 1019
L 4122 359
Q 3791 134 3420 21
Q 3050 -91 2638 -91
Q 1578 -91 968 557
Q 359 1206 359 2328
Q 359 3453 968 4101
Q 1578 4750 2638 4750
Q 3056 4750 3426 4639
Q 3797 4528 4122 4306
z
" transform="scale(0.015625)"/>
     </defs>
     <use xlink:href="#DejaVuSans-24"/>
     <use xlink:href="#DejaVuSans-58" transform="translate(68.40625 0)"/>
     <use xlink:href="#DejaVuSans-57" transform="translate(131.78125 0)"/>
     <use xlink:href="#DejaVuSans-4b" transform="translate(170.984375 0)"/>
     <use xlink:href="#DejaVuSans-3" transform="translate(234.359375 0)"/>
     <use xlink:href="#DejaVuSans-e" transform="translate(266.140625 0)"/>
     <use xlink:href="#DejaVuSans-3" transform="translate(349.9375 0)"/>
     <use xlink:href="#DejaVuSans-35" transform="translate(381.71875 0)"/>
     <use xlink:href="#DejaVuSans-25" transform="translate(451.203125 0)"/>
     <use xlink:href="#DejaVuSans-24" transform="translate(519.8125 0)"/>
     <use xlink:href="#DejaVuSans-26" transform="translate(586.46875 0)"/>
    </g>
   </g>
   <g id="text_7">
    <!-- Device command queue -->
    <g transform="translate(522.8886 144.29314) scale(0.085 -0.085)">
     <defs>
      <path id="DejaVuSans-27" d="M 1259 4147
L 1259 519
L 2022 519
Q 2988 519 3436 956
Q 3884 1394 3884 2338
Q 3884 3275 3436 3711
Q 2988 4147 2022 4147
L 1259 4147
z
M 628 4666
L 1925 4666
Q 3281 4666 3915 4102
Q 4550 3538 4550 2338
Q 4550 1131 3912 565
Q 3275 0 1925 0
L 628 0
L 628 4666
z
" transform="scale(0.015625)"/>
      <path id="DejaVuSans-52" d="M 1959 3097
Q 1497 3097 1228 2736
Q 959 2375 959 1747
Q 959 1119 1226 758
Q 1494 397 1959 397
Q 2419 397 2687 759
Q 2956 1122 2956 1747
Q 2956 2369 2687 2733
Q 2419 3097 1959 3097
z
M 1959 3584
Q 2709 3584 3137 3096
Q 3566 2609 3566 1747
Q 3566 888 3137 398
Q 2709 -91 1959 -91
Q 1206 -91 779 398
Q 353 888 353 1747
Q 353 2609 779 3096
Q 1206 3584 1959 3584
z
" transform="scale(0.015625)"/>
      <path id="DejaVuSans-54" d="M 947 1747
Q 947 1113 1208 752
Q 1469 391 1925 391
Q 2381 391 2643 752
Q 2906 1113 2906 1747
Q 2906 2381 2643 2742
Q 2381 3103 1925 3103
Q 1469 3103 1208 2742
Q 947 2381 947 1747
z
M 2906 525
Q 2725 213 2448 61
Q 2172 -91 1784 -91
Q 1150 -91 751 415
Q 353 922 353 1747
Q 353 2572 751 3078
Q 1150 3584 1784 3584
Q 2172 3584 2448 3432
Q 2725 3281 2906 2969
L 2906 3500
L 3481 3500
L 3481 -1331
L 2906 -1331
L 2906 525
z
" transform="scale(0.015625)"/>
     </defs>
     <use xlink:href="#DejaVuSans-27"/>
     <use xlink:href="#DejaVuSans-48" transform="translate(77 0)"/>
     <use xlink:href="#DejaVuSans-59" transform="translate(138.53125 0)"/>
     <use xlink:href="#DejaVuSans-4c" transform="translate(197.71875 0)"/>
     <use xlink:href="#DejaVuSans-46" transform="translate(225.5 0)"/>
     <use xlink:href="#DejaVuSans-48" transform="translate(280.484375 0)"/>
     <use xlink:href="#DejaVuSans-3" transform="translate(342.015625 0)"/>
     <use xlink:href="#DejaVuSans-46" transform="translate(373.796875 0)"/>
     <use xlink:href="#DejaVuSans-52" transform="translate(428.78125 0)"/>
     <use xlink:href="#DejaVuSans-50" transform="translate(489.96875 0)"/>
     <use xlink:href="#DejaVuSans-50" transform="translate(587.375 0)"/>
     <use xlink:href="#DejaVuSans-44" transform="translate(684.78125 0)"/>
     <use xlink:href="#DejaVuSans-51" transform="translate(746.0625 0)"/>
     <use xlink:href="#DejaVuSans-47" transform="translate(809.4375 0)"/>
     <use xlink:href="#DejaVuSans-3" transform="translate(872.921875 0)"/>
     <use xlink:href="#DejaVuSans-54" transform="translate(904.703125 0)"/>
     <use xlink:href="#DejaVuSans-58" transform="translate(968.1875 0)"/>
     <use xlink:href="#DejaVuSans-48" transform="translate(1031.5625 0)"/>
     <use xlink:href="#DejaVuSans-58" transform="translate(1093.09375 0)"/>
     <use xlink:href="#DejaVuSans-48" transform="translate(1156.46875 0)"/>
    </g>
   </g>
   <g id="text_8">
    <!-- DỮ LIỆU VÀ PHÂN TÍCH -->
    <g style="fill: #f28e2b" transform="translate(42.228 210.072611) scale(0.09 -0.09)">
     <defs>
      <path id="DejaVuSans-Bold-9eb" d="M 2603 5263
L 2428 5372
Q 2419 5379 2397 5391
Q 2256 5472 2169 5472
Q 2069 5472 2006 5378
Q 1944 5285 1944 5129
L 1944 5110
L 1509 5110
Q 1509 5125 1512 5156
Q 1516 5188 1516 5204
Q 1516 5535 1683 5738
Q 1850 5941 2122 5941
Q 2238 5941 2353 5902
Q 2469 5863 2591 5788
L 2775 5666
Q 2841 5622 2902 5598
Q 2963 5575 3013 5575
Q 3128 5575 3189 5669
Q 3250 5763 3250 5941
L 3684 5941
Q 3684 5922 3681 5891
Q 3678 5860 3678 5844
Q 3678 5513 3511 5311
Q 3344 5110 3072 5110
Q 2953 5110 2843 5144
Q 2734 5179 2603 5263
z
M 4078 3878
L 4078 4319
Q 4288 4163 4402 4103
Q 4516 4044 4597 4044
Q 4719 4044 4795 4136
Q 4872 4228 4872 4382
Q 4872 4503 4848 4623
Q 4825 4744 4775 4869
L 5263 4869
Q 5297 4697 5314 4550
Q 5331 4403 5331 4275
Q 5331 3916 5187 3724
Q 5044 3532 4775 3532
Q 4609 3532 4439 3616
Q 4269 3700 4078 3878
z
M 585 4666
L 1788 4666
L 1788 1869
Q 1788 1291 1977 1042
Q 2166 794 2594 794
Q 3025 794 3214 1042
Q 3403 1291 3403 1869
L 3403 4666
L 4606 4666
L 4606 1869
Q 4606 878 4109 393
Q 3613 -91 2594 -91
Q 1578 -91 1081 393
Q 585 878 585 1869
L 585 4666
z
" transform="scale(0.015625)"/>
      <path id="DejaVuSans-Bold-2f" d="M 588 4666
L 1791 4666
L 1791 909
L 3903 909
L 3903 0
L 588 0
L 588 4666
z
" transform="scale(0.015625)"/>
      <path id="DejaVuSans-Bold-38" d="M 588 4666
L 1791 4666
L 1791 1869
Q 1791 1291 1980 1042
Q 2169 794 2597 794
Q 3028 794 3217 1042
Q 3406 1291 3406 1869
L 3406 4666
L 4609 4666
L 4609 1869
Q 4609 878 4112 393
Q 3616 -91 2597 -91
Q 1581 -91 1084 393
Q 588 878 588 1869
L 588 4666
z
" transform="scale(0.015625)"/>
      <path id="DejaVuSans-Bold-82" d="M 3419 850
L 1538 850
L 1241 0
L 31 0
L 1759 4666
L 3194 4666
L 4922 0
L 3713 0
L 3419 850
z
M 1838 1716
L 3116 1716
L 2478 3572
L 1838 1716
z
M 2241 5935
L 2859 5110
L 2247 5110
L 1356 5935
L 2241 5935
z
" transform="scale(0.015625)"/>
      <path id="DejaVuSans-Bold-33" d="M 588 4666
L 2584 4666
Q 3475 4666 3951 4270
Q 4428 3875 4428 3144
Q 4428 2409 3951 2014
Q 3475 1619 2584 1619
L 1791 1619
L 1791 0
L 588 0
L 588 4666
z
M 1791 3794
L 1791 2491
L 2456 2491
Q 2806 2491 2997 2661
Q 3188 2831 3188 3144
Q 3188 3456 2997 3625
Q 2806 3794 2456 3794
L 1791 3794
z
" transform="scale(0.015625)"/>
      <path id="DejaVuSans-Bold-84" d="M 3419 850
L 1538 850
L 1241 0
L 31 0
L 1759 4666
L 3194 4666
L 4922 0
L 3713 0
L 3419 850
z
M 1838 1716
L 3116 1716
L 2478 3572
L 1838 1716
z
M 1994 5935
L 2956 5935
L 3653 5110
L 3097 5110
L 2475 5613
L 1853 5110
L 1297 5110
L 1994 5935
z
" transform="scale(0.015625)"/>
      <path id="DejaVuSans-Bold-37" d="M 31 4666
L 4331 4666
L 4331 3756
L 2784 3756
L 2784 0
L 1581 0
L 1581 3756
L 31 3756
L 31 4666
z
" transform="scale(0.015625)"/>
      <path id="DejaVuSans-Bold-8f" d="M 588 4666
L 1791 4666
L 1791 0
L 588 0
L 588 4666
z
M 1272 5935
L 2157 5935
L 1266 5110
L 654 5110
L 1272 5935
z
" transform="scale(0.015625)"/>
     </defs>
     <use xlink:href="#DejaVuSans-Bold-27"/>
     <use xlink:href="#DejaVuSans-Bold-9eb" transform="translate(83.015625 0)"/>
     <use xlink:href="#DejaVuSans-Bold-3" transform="translate(166.5625 0)"/>
     <use xlink:href="#DejaVuSans-Bold-2f" transform="translate(201.375 0)"/>
     <use xlink:href="#DejaVuSans-Bold-2c" transform="translate(265.09375 0)"/>
     <use xlink:href="#DejaVuSans-Bold-9c3" transform="translate(302.296875 0)"/>
     <use xlink:href="#DejaVuSans-Bold-38" transform="translate(370.609375 0)"/>
     <use xlink:href="#DejaVuSans-Bold-3" transform="translate(451.8125 0)"/>
     <use xlink:href="#DejaVuSans-Bold-39" transform="translate(486.625 0)"/>
     <use xlink:href="#DejaVuSans-Bold-82" transform="translate(557.234375 0)"/>
     <use xlink:href="#DejaVuSans-Bold-3" transform="translate(634.625 0)"/>
     <use xlink:href="#DejaVuSans-Bold-33" transform="translate(669.4375 0)"/>
     <use xlink:href="#DejaVuSans-Bold-2b" transform="translate(742.734375 0)"/>
     <use xlink:href="#DejaVuSans-Bold-84" transform="translate(826.421875 0)"/>
     <use xlink:href="#DejaVuSans-Bold-31" transform="translate(903.8125 0)"/>
     <use xlink:href="#DejaVuSans-Bold-3" transform="translate(987.5 0)"/>
     <use xlink:href="#DejaVuSans-Bold-37" transform="translate(1022.3125 0)"/>
     <use xlink:href="#DejaVuSans-Bold-8f" transform="translate(1090.53125 0)"/>
     <use xlink:href="#DejaVuSans-Bold-26" transform="translate(1127.734375 0)"/>
     <use xlink:href="#DejaVuSans-Bold-2b" transform="translate(1201.125 0)"/>
    </g>
   </g>
   <g id="text_9">
    <!-- SQLite/Postgres -->
    <g transform="translate(198.001427 222.38434) scale(0.085 -0.085)">
     <defs>
      <path id="DejaVuSans-36" d="M 3425 4513
L 3425 3897
Q 3066 4069 2747 4153
Q 2428 4238 2131 4238
Q 1616 4238 1336 4038
Q 1056 3838 1056 3469
Q 1056 3159 1242 3001
Q 1428 2844 1947 2747
L 2328 2669
Q 3034 2534 3370 2195
Q 3706 1856 3706 1288
Q 3706 609 3251 259
Q 2797 -91 1919 -91
Q 1588 -91 1214 -16
Q 841 59 441 206
L 441 856
Q 825 641 1194 531
Q 1563 422 1919 422
Q 2459 422 2753 634
Q 3047 847 3047 1241
Q 3047 1584 2836 1778
Q 2625 1972 2144 2069
L 1759 2144
Q 1053 2284 737 2584
Q 422 2884 422 3419
Q 422 4038 858 4394
Q 1294 4750 2059 4750
Q 2388 4750 2728 4690
Q 3069 4631 3425 4513
z
" transform="scale(0.015625)"/>
      <path id="DejaVuSans-34" d="M 2522 4238
Q 1834 4238 1429 3725
Q 1025 3213 1025 2328
Q 1025 1447 1429 934
Q 1834 422 2522 422
Q 3209 422 3611 934
Q 4013 1447 4013 2328
Q 4013 3213 3611 3725
Q 3209 4238 2522 4238
z
M 3406 84
L 4238 -825
L 3475 -825
L 2784 -78
Q 2681 -84 2626 -87
Q 2572 -91 2522 -91
Q 1538 -91 948 567
Q 359 1225 359 2328
Q 359 3434 948 4092
Q 1538 4750 2522 4750
Q 3503 4750 4090 4092
Q 4678 3434 4678 2328
Q 4678 1516 4351 937
Q 4025 359 3406 84
z
" transform="scale(0.015625)"/>
      <path id="DejaVuSans-2f" d="M 628 4666
L 1259 4666
L 1259 531
L 3531 531
L 3531 0
L 628 0
L 628 4666
z
" transform="scale(0.015625)"/>
      <path id="DejaVuSans-12" d="M 1625 4666
L 2156 4666
L 531 -594
L 0 -594
L 1625 4666
z
" transform="scale(0.015625)"/>
      <path id="DejaVuSans-55" d="M 2631 2963
Q 2534 3019 2420 3045
Q 2306 3072 2169 3072
Q 1681 3072 1420 2755
Q 1159 2438 1159 1844
L 1159 0
L 581 0
L 581 3500
L 1159 3500
L 1159 2956
Q 1341 3275 1631 3429
Q 1922 3584 2338 3584
Q 2397 3584 2469 3576
Q 2541 3569 2628 3553
L 2631 2963
z
" transform="scale(0.015625)"/>
     </defs>
     <use xlink:href="#DejaVuSans-36"/>
     <use xlink:href="#DejaVuSans-34" transform="translate(63.484375 0)"/>
     <use xlink:href="#DejaVuSans-2f" transform="translate(142.203125 0)"/>
     <use xlink:href="#DejaVuSans-4c" transform="translate(197.921875 0)"/>
     <use xlink:href="#DejaVuSans-57" transform="translate(225.703125 0)"/>
     <use xlink:href="#DejaVuSans-48" transform="translate(264.90625 0)"/>
     <use xlink:href="#DejaVuSans-12" transform="translate(326.4375 0)"/>
     <use xlink:href="#DejaVuSans-33" transform="translate(360.125 0)"/>
     <use xlink:href="#DejaVuSans-52" transform="translate(416.859375 0)"/>
     <use xlink:href="#DejaVuSans-56" transform="translate(478.046875 0)"/>
     <use xlink:href="#DejaVuSans-57" transform="translate(530.140625 0)"/>
     <use xlink:href="#DejaVuSans-4a" transform="translate(569.34375 0)"/>
     <use xlink:href="#DejaVuSans-55" transform="translate(632.828125 0)"/>
     <use xlink:href="#DejaVuSans-48" transform="translate(671.734375 0)"/>
     <use xlink:href="#DejaVuSans-56" transform="translate(733.265625 0)"/>
    </g>
   </g>
   <g id="text_10">
    <!-- Raw log + canonical JSON -->
    <g transform="translate(347.925111 222.38434) scale(0.085 -0.085)">
     <defs>
      <path id="DejaVuSans-5a" d="M 269 3500
L 844 3500
L 1563 769
L 2278 3500
L 2956 3500
L 3675 769
L 4391 3500
L 4966 3500
L 4050 0
L 3372 0
L 2619 2869
L 1863 0
L 1184 0
L 269 3500
z
" transform="scale(0.015625)"/>
      <path id="DejaVuSans-2d" d="M 628 4666
L 1259 4666
L 1259 325
Q 1259 -519 939 -900
Q 619 -1281 -91 -1281
L -331 -1281
L -331 -750
L -134 -750
Q 284 -750 456 -515
Q 628 -281 628 325
L 628 4666
z
" transform="scale(0.015625)"/>
      <path id="DejaVuSans-32" d="M 2522 4238
Q 1834 4238 1429 3725
Q 1025 3213 1025 2328
Q 1025 1447 1429 934
Q 1834 422 2522 422
Q 3209 422 3611 934
Q 4013 1447 4013 2328
Q 4013 3213 3611 3725
Q 3209 4238 2522 4238
z
M 2522 4750
Q 3503 4750 4090 4092
Q 4678 3434 4678 2328
Q 4678 1225 4090 567
Q 3503 -91 2522 -91
Q 1538 -91 948 565
Q 359 1222 359 2328
Q 359 3434 948 4092
Q 1538 4750 2522 4750
z
" transform="scale(0.015625)"/>
     </defs>
     <use xlink:href="#DejaVuSans-35"/>
     <use xlink:href="#DejaVuSans-44" transform="translate(67.28125 0)"/>
     <use xlink:href="#DejaVuSans-5a" transform="translate(128.5625 0)"/>
     <use xlink:href="#DejaVuSans-3" transform="translate(210.34375 0)"/>
     <use xlink:href="#DejaVuSans-4f" transform="translate(242.125 0)"/>
     <use xlink:href="#DejaVuSans-52" transform="translate(269.90625 0)"/>
     <use xlink:href="#DejaVuSans-4a" transform="translate(331.09375 0)"/>
     <use xlink:href="#DejaVuSans-3" transform="translate(394.578125 0)"/>
     <use xlink:href="#DejaVuSans-e" transform="translate(426.359375 0)"/>
     <use xlink:href="#DejaVuSans-3" transform="translate(510.15625 0)"/>
     <use xlink:href="#DejaVuSans-46" transform="translate(541.9375 0)"/>
     <use xlink:href="#DejaVuSans-44" transform="translate(596.921875 0)"/>
     <use xlink:href="#DejaVuSans-51" transform="translate(658.203125 0)"/>
     <use xlink:href="#DejaVuSans-52" transform="translate(721.578125 0)"/>
     <use xlink:href="#DejaVuSans-51" transform="translate(782.765625 0)"/>
     <use xlink:href="#DejaVuSans-4c" transform="translate(846.140625 0)"/>
     <use xlink:href="#DejaVuSans-46" transform="translate(873.921875 0)"/>
     <use xlink:href="#DejaVuSans-44" transform="translate(928.90625 0)"/>
     <use xlink:href="#DejaVuSans-4f" transform="translate(990.1875 0)"/>
     <use xlink:href="#DejaVuSans-3" transform="translate(1017.96875 0)"/>
     <use xlink:href="#DejaVuSans-2d" transform="translate(1049.75 0)"/>
     <use xlink:href="#DejaVuSans-36" transform="translate(1079.25 0)"/>
     <use xlink:href="#DejaVuSans-32" transform="translate(1142.734375 0)"/>
     <use xlink:href="#DejaVuSans-31" transform="translate(1221.453125 0)"/>
    </g>
   </g>
   <g id="text_11">
    <!-- Forecast API -->
    <g transform="translate(548.595788 222.384008) scale(0.085 -0.085)">
     <use xlink:href="#DejaVuSans-29"/>
     <use xlink:href="#DejaVuSans-52" transform="translate(53.953125 0)"/>
     <use xlink:href="#DejaVuSans-55" transform="translate(115.140625 0)"/>
     <use xlink:href="#DejaVuSans-48" transform="translate(154.046875 0)"/>
     <use xlink:href="#DejaVuSans-46" transform="translate(215.578125 0)"/>
     <use xlink:href="#DejaVuSans-44" transform="translate(270.5625 0)"/>
     <use xlink:href="#DejaVuSans-56" transform="translate(331.84375 0)"/>
     <use xlink:href="#DejaVuSans-57" transform="translate(383.9375 0)"/>
     <use xlink:href="#DejaVuSans-3" transform="translate(423.140625 0)"/>
     <use xlink:href="#DejaVuSans-24" transform="translate(454.921875 0)"/>
     <use xlink:href="#DejaVuSans-33" transform="translate(523.328125 0)"/>
     <use xlink:href="#DejaVuSans-2c" transform="translate(583.625 0)"/>
    </g>
   </g>
   <g id="text_12">
    <!-- EDGE / THIẾT BỊ -->
    <g style="fill: #b07aa1" transform="translate(42.228 289.297249) scale(0.09 -0.09)">
     <defs>
      <path id="DejaVuSans-Bold-28" d="M 588 4666
L 3834 4666
L 3834 3756
L 1791 3756
L 1791 2888
L 3713 2888
L 3713 1978
L 1791 1978
L 1791 909
L 3903 909
L 3903 0
L 588 0
L 588 4666
z
" transform="scale(0.015625)"/>
      <path id="DejaVuSans-Bold-12" d="M 1644 4666
L 2338 4666
L 691 -594
L 0 -594
L 1644 4666
z
" transform="scale(0.015625)"/>
      <path id="DejaVuSans-Bold-9bb" d="M 588 4666
L 3834 4666
L 3834 3756
L 1791 3756
L 1791 2888
L 3713 2888
L 3713 1978
L 1791 1978
L 1791 909
L 3903 909
L 3903 0
L 588 0
L 588 4666
z
M 3493 6747
L 4378 6747
L 3487 5922
L 2875 5922
L 3493 6747
z
M 1735 5935
L 2697 5935
L 3394 5110
L 2838 5110
L 2216 5613
L 1594 5110
L 1038 5110
L 1735 5935
z
" transform="scale(0.015625)"/>
      <path id="DejaVuSans-Bold-25" d="M 2456 2859
Q 2741 2859 2887 2984
Q 3034 3109 3034 3353
Q 3034 3594 2887 3720
Q 2741 3847 2456 3847
L 1791 3847
L 1791 2859
L 2456 2859
z
M 2497 819
Q 2859 819 3042 972
Q 3225 1125 3225 1434
Q 3225 1738 3044 1889
Q 2863 2041 2497 2041
L 1791 2041
L 1791 819
L 2497 819
z
M 3616 2497
Q 4003 2384 4215 2081
Q 4428 1778 4428 1338
Q 4428 663 3972 331
Q 3516 0 2584 0
L 588 0
L 588 4666
L 2394 4666
Q 3366 4666 3802 4372
Q 4238 4078 4238 3431
Q 4238 3091 4078 2852
Q 3919 2613 3616 2497
z
" transform="scale(0.015625)"/>
     </defs>
     <use xlink:href="#DejaVuSans-Bold-28"/>
     <use xlink:href="#DejaVuSans-Bold-27" transform="translate(68.3125 0)"/>
     <use xlink:href="#DejaVuSans-Bold-2a" transform="translate(151.328125 0)"/>
     <use xlink:href="#DejaVuSans-Bold-28" transform="translate(233.40625 0)"/>
     <use xlink:href="#DejaVuSans-Bold-3" transform="translate(301.71875 0)"/>
     <use xlink:href="#DejaVuSans-Bold-12" transform="translate(336.53125 0)"/>
     <use xlink:href="#DejaVuSans-Bold-3" transform="translate(373.0625 0)"/>
     <use xlink:href="#DejaVuSans-Bold-37" transform="translate(407.875 0)"/>
     <use xlink:href="#DejaVuSans-Bold-2b" transform="translate(476.09375 0)"/>
     <use xlink:href="#DejaVuSans-Bold-2c" transform="translate(559.78125 0)"/>
     <use xlink:href="#DejaVuSans-Bold-9bb" transform="translate(596.984375 0)"/>
     <use xlink:href="#DejaVuSans-Bold-37" transform="translate(665.296875 0)"/>
     <use xlink:href="#DejaVuSans-Bold-3" transform="translate(733.515625 0)"/>
     <use xlink:href="#DejaVuSans-Bold-25" transform="translate(768.328125 0)"/>
     <use xlink:href="#DejaVuSans-Bold-9c7" transform="translate(844.546875 0)"/>
    </g>
   </g>
   <g id="text_13">
    <!-- S7-1200 -->
    <g transform="translate(213.627481 300.475208) scale(0.085 -0.085)">
     <defs>
      <path id="DejaVuSans-1a" d="M 525 4666
L 3525 4666
L 3525 4397
L 1831 0
L 1172 0
L 2766 4134
L 525 4134
L 525 4666
z
" transform="scale(0.015625)"/>
      <path id="DejaVuSans-10" d="M 313 2009
L 1997 2009
L 1997 1497
L 313 1497
L 313 2009
z
" transform="scale(0.015625)"/>
      <path id="DejaVuSans-14" d="M 794 531
L 1825 531
L 1825 4091
L 703 3866
L 703 4441
L 1819 4666
L 2450 4666
L 2450 531
L 3481 531
L 3481 0
L 794 0
L 794 531
z
" transform="scale(0.015625)"/>
      <path id="DejaVuSans-15" d="M 1228 531
L 3431 531
L 3431 0
L 469 0
L 469 531
Q 828 903 1448 1529
Q 2069 2156 2228 2338
Q 2531 2678 2651 2914
Q 2772 3150 2772 3378
Q 2772 3750 2511 3984
Q 2250 4219 1831 4219
Q 1534 4219 1204 4116
Q 875 4013 500 3803
L 500 4441
Q 881 4594 1212 4672
Q 1544 4750 1819 4750
Q 2544 4750 2975 4387
Q 3406 4025 3406 3419
Q 3406 3131 3298 2873
Q 3191 2616 2906 2266
Q 2828 2175 2409 1742
Q 1991 1309 1228 531
z
" transform="scale(0.015625)"/>
      <path id="DejaVuSans-13" d="M 2034 4250
Q 1547 4250 1301 3770
Q 1056 3291 1056 2328
Q 1056 1369 1301 889
Q 1547 409 2034 409
Q 2525 409 2770 889
Q 3016 1369 3016 2328
Q 3016 3291 2770 3770
Q 2525 4250 2034 4250
z
M 2034 4750
Q 2819 4750 3233 4129
Q 3647 3509 3647 2328
Q 3647 1150 3233 529
Q 2819 -91 2034 -91
Q 1250 -91 836 529
Q 422 1150 422 2328
Q 422 3509 836 4129
Q 1250 4750 2034 4750
z
" transform="scale(0.015625)"/>
     </defs>
     <use xlink:href="#DejaVuSans-36"/>
     <use xlink:href="#DejaVuSans-1a" transform="translate(63.484375 0)"/>
     <use xlink:href="#DejaVuSans-10" transform="translate(127.109375 0)"/>
     <use xlink:href="#DejaVuSans-14" transform="translate(163.1875 0)"/>
     <use xlink:href="#DejaVuSans-15" transform="translate(226.8125 0)"/>
     <use xlink:href="#DejaVuSans-13" transform="translate(290.4375 0)"/>
     <use xlink:href="#DejaVuSans-13" transform="translate(354.0625 0)"/>
    </g>
   </g>
   <g id="text_14">
    <!-- MFM384 -->
    <g transform="translate(385.125892 300.475208) scale(0.085 -0.085)">
     <defs>
      <path id="DejaVuSans-30" d="M 628 4666
L 1569 4666
L 2759 1491
L 3956 4666
L 4897 4666
L 4897 0
L 4281 0
L 4281 4097
L 3078 897
L 2444 897
L 1241 4097
L 1241 0
L 628 0
L 628 4666
z
" transform="scale(0.015625)"/>
      <path id="DejaVuSans-16" d="M 2597 2516
Q 3050 2419 3304 2112
Q 3559 1806 3559 1356
Q 3559 666 3084 287
Q 2609 -91 1734 -91
Q 1441 -91 1130 -33
Q 819 25 488 141
L 488 750
Q 750 597 1062 519
Q 1375 441 1716 441
Q 2309 441 2620 675
Q 2931 909 2931 1356
Q 2931 1769 2642 2001
Q 2353 2234 1838 2234
L 1294 2234
L 1294 2753
L 1863 2753
Q 2328 2753 2575 2939
Q 2822 3125 2822 3475
Q 2822 3834 2567 4026
Q 2313 4219 1838 4219
Q 1578 4219 1281 4162
Q 984 4106 628 3988
L 628 4550
Q 988 4650 1302 4700
Q 1616 4750 1894 4750
Q 2613 4750 3031 4423
Q 3450 4097 3450 3541
Q 3450 3153 3228 2886
Q 3006 2619 2597 2516
z
" transform="scale(0.015625)"/>
      <path id="DejaVuSans-1b" d="M 2034 2216
Q 1584 2216 1326 1975
Q 1069 1734 1069 1313
Q 1069 891 1326 650
Q 1584 409 2034 409
Q 2484 409 2743 651
Q 3003 894 3003 1313
Q 3003 1734 2745 1975
Q 2488 2216 2034 2216
z
M 1403 2484
Q 997 2584 770 2862
Q 544 3141 544 3541
Q 544 4100 942 4425
Q 1341 4750 2034 4750
Q 2731 4750 3128 4425
Q 3525 4100 3525 3541
Q 3525 3141 3298 2862
Q 3072 2584 2669 2484
Q 3125 2378 3379 2068
Q 3634 1759 3634 1313
Q 3634 634 3220 271
Q 2806 -91 2034 -91
Q 1263 -91 848 271
Q 434 634 434 1313
Q 434 1759 690 2068
Q 947 2378 1403 2484
z
M 1172 3481
Q 1172 3119 1398 2916
Q 1625 2713 2034 2713
Q 2441 2713 2670 2916
Q 2900 3119 2900 3481
Q 2900 3844 2670 4047
Q 2441 4250 2034 4250
Q 1625 4250 1398 4047
Q 1172 3844 1172 3481
z
" transform="scale(0.015625)"/>
      <path id="DejaVuSans-17" d="M 2419 4116
L 825 1625
L 2419 1625
L 2419 4116
z
M 2253 4666
L 3047 4666
L 3047 1625
L 3713 1625
L 3713 1100
L 3047 1100
L 3047 0
L 2419 0
L 2419 1100
L 313 1100
L 313 1709
L 2253 4666
z
" transform="scale(0.015625)"/>
     </defs>
     <use xlink:href="#DejaVuSans-30"/>
     <use xlink:href="#DejaVuSans-29" transform="translate(86.28125 0)"/>
     <use xlink:href="#DejaVuSans-30" transform="translate(143.796875 0)"/>
     <use xlink:href="#DejaVuSans-16" transform="translate(230.078125 0)"/>
     <use xlink:href="#DejaVuSans-1b" transform="translate(293.703125 0)"/>
     <use xlink:href="#DejaVuSans-17" transform="translate(357.328125 0)"/>
    </g>
   </g>
   <g id="text_15">
    <!-- Relay/contactor + feedback -->
    <g transform="translate(515.504225 300.47554) scale(0.085 -0.085)">
     <defs>
      <path id="DejaVuSans-5c" d="M 2059 -325
Q 1816 -950 1584 -1140
Q 1353 -1331 966 -1331
L 506 -1331
L 506 -850
L 844 -850
Q 1081 -850 1212 -737
Q 1344 -625 1503 -206
L 1606 56
L 191 3500
L 800 3500
L 1894 763
L 2988 3500
L 3597 3500
L 2059 -325
z
" transform="scale(0.015625)"/>
      <path id="DejaVuSans-49" d="M 2375 4863
L 2375 4384
L 1825 4384
Q 1516 4384 1395 4259
Q 1275 4134 1275 3809
L 1275 3500
L 2222 3500
L 2222 3053
L 1275 3053
L 1275 0
L 697 0
L 697 3053
L 147 3053
L 147 3500
L 697 3500
L 697 3744
Q 697 4328 969 4595
Q 1241 4863 1831 4863
L 2375 4863
z
" transform="scale(0.015625)"/>
      <path id="DejaVuSans-45" d="M 3116 1747
Q 3116 2381 2855 2742
Q 2594 3103 2138 3103
Q 1681 3103 1420 2742
Q 1159 2381 1159 1747
Q 1159 1113 1420 752
Q 1681 391 2138 391
Q 2594 391 2855 752
Q 3116 1113 3116 1747
z
M 1159 2969
Q 1341 3281 1617 3432
Q 1894 3584 2278 3584
Q 2916 3584 3314 3078
Q 3713 2572 3713 1747
Q 3713 922 3314 415
Q 2916 -91 2278 -91
Q 1894 -91 1617 61
Q 1341 213 1159 525
L 1159 0
L 581 0
L 581 4863
L 1159 4863
L 1159 2969
z
" transform="scale(0.015625)"/>
     </defs>
     <use xlink:href="#DejaVuSans-35"/>
     <use xlink:href="#DejaVuSans-48" transform="translate(65 0)"/>
     <use xlink:href="#DejaVuSans-4f" transform="translate(126.53125 0)"/>
     <use xlink:href="#DejaVuSans-44" transform="translate(154.3125 0)"/>
     <use xlink:href="#DejaVuSans-5c" transform="translate(215.59375 0)"/>
     <use xlink:href="#DejaVuSans-12" transform="translate(274.78125 0)"/>
     <use xlink:href="#DejaVuSans-46" transform="translate(308.46875 0)"/>
     <use xlink:href="#DejaVuSans-52" transform="translate(363.453125 0)"/>
     <use xlink:href="#DejaVuSans-51" transform="translate(424.640625 0)"/>
     <use xlink:href="#DejaVuSans-57" transform="translate(488.015625 0)"/>
     <use xlink:href="#DejaVuSans-44" transform="translate(527.21875 0)"/>
     <use xlink:href="#DejaVuSans-46" transform="translate(588.5 0)"/>
     <use xlink:href="#DejaVuSans-57" transform="translate(643.484375 0)"/>
     <use xlink:href="#DejaVuSans-52" transform="translate(682.6875 0)"/>
     <use xlink:href="#DejaVuSans-55" transform="translate(743.875 0)"/>
     <use xlink:href="#DejaVuSans-3" transform="translate(784.984375 0)"/>
     <use xlink:href="#DejaVuSans-e" transform="translate(816.765625 0)"/>
     <use xlink:href="#DejaVuSans-3" transform="translate(900.5625 0)"/>
     <use xlink:href="#DejaVuSans-49" transform="translate(932.34375 0)"/>
     <use xlink:href="#DejaVuSans-48" transform="translate(967.546875 0)"/>
     <use xlink:href="#DejaVuSans-48" transform="translate(1029.078125 0)"/>
     <use xlink:href="#DejaVuSans-47" transform="translate(1090.609375 0)"/>
     <use xlink:href="#DejaVuSans-45" transform="translate(1154.09375 0)"/>
     <use xlink:href="#DejaVuSans-44" transform="translate(1217.578125 0)"/>
     <use xlink:href="#DejaVuSans-46" transform="translate(1278.859375 0)"/>
     <use xlink:href="#DejaVuSans-4e" transform="translate(1333.84375 0)"/>
    </g>
   </g>
   <g id="patch_18">
    <path d="M 357.48 96.066701
Q 357.48 103.037629 357.48 110.008557
" style="fill: none; stroke: #334155; stroke-width: 1.5; stroke-linecap: round"/>
    <path d="M 355.68 99.666701
L 357.48 96.066701
L 359.28 99.666701
" style="fill: none; stroke: #334155; stroke-width: 1.5; stroke-linecap: round"/>
    <path d="M 359.28 106.408557
L 357.48 110.008557
L 355.68 106.408557
" style="fill: none; stroke: #334155; stroke-width: 1.5; stroke-linecap: round"/>
   </g>
   <g id="patch_19">
    <path d="M 357.48 174.157901
Q 357.48 181.128829 357.48 188.099757
" style="fill: none; stroke: #334155; stroke-width: 1.5; stroke-linecap: round"/>
    <path d="M 355.68 177.757901
L 357.48 174.157901
L 359.28 177.757901
" style="fill: none; stroke: #334155; stroke-width: 1.5; stroke-linecap: round"/>
    <path d="M 359.28 184.499757
L 357.48 188.099757
L 355.68 184.499757
" style="fill: none; stroke: #334155; stroke-width: 1.5; stroke-linecap: round"/>
   </g>
   <g id="patch_20">
    <path d="M 357.48 252.249101
Q 357.48 259.220029 357.48 266.190957
" style="fill: none; stroke: #334155; stroke-width: 1.5; stroke-linecap: round"/>
    <path d="M 355.68 255.849101
L 357.48 252.249101
L 359.28 255.849101
" style="fill: none; stroke: #334155; stroke-width: 1.5; stroke-linecap: round"/>
    <path d="M 359.28 262.590957
L 357.48 266.190957
L 355.68 262.590957
" style="fill: none; stroke: #334155; stroke-width: 1.5; stroke-linecap: round"/>
   </g>
   <g id="text_16">
    <!-- Auto-shedding: TẮT -->
    <g style="fill: #e15759" transform="translate(568.6269 330.295119) scale(0.08 -0.08)">
     <defs>
      <path id="DejaVuSans-Bold-58" d="M 500 1363
L 500 3500
L 1625 3500
L 1625 3150
Q 1625 2866 1622 2436
Q 1619 2006 1619 1863
Q 1619 1441 1641 1255
Q 1663 1069 1716 984
Q 1784 875 1895 815
Q 2006 756 2150 756
Q 2500 756 2700 1025
Q 2900 1294 2900 1772
L 2900 3500
L 4019 3500
L 4019 0
L 2900 0
L 2900 506
Q 2647 200 2364 54
Q 2081 -91 1741 -91
Q 1134 -91 817 281
Q 500 653 500 1363
z
" transform="scale(0.015625)"/>
      <path id="DejaVuSans-Bold-57" d="M 1759 4494
L 1759 3500
L 2913 3500
L 2913 2700
L 1759 2700
L 1759 1216
Q 1759 972 1856 886
Q 1953 800 2241 800
L 2816 800
L 2816 0
L 1856 0
Q 1194 0 917 276
Q 641 553 641 1216
L 641 2700
L 84 2700
L 84 3500
L 641 3500
L 641 4494
L 1759 4494
z
" transform="scale(0.015625)"/>
      <path id="DejaVuSans-Bold-52" d="M 2203 2784
Q 1831 2784 1636 2517
Q 1441 2250 1441 1747
Q 1441 1244 1636 976
Q 1831 709 2203 709
Q 2569 709 2762 976
Q 2956 1244 2956 1747
Q 2956 2250 2762 2517
Q 2569 2784 2203 2784
z
M 2203 3584
Q 3106 3584 3614 3096
Q 4122 2609 4122 1747
Q 4122 884 3614 396
Q 3106 -91 2203 -91
Q 1297 -91 786 396
Q 275 884 275 1747
Q 275 2609 786 3096
Q 1297 3584 2203 3584
z
" transform="scale(0.015625)"/>
      <path id="DejaVuSans-Bold-10" d="M 347 2297
L 2309 2297
L 2309 1388
L 347 1388
L 347 2297
z
" transform="scale(0.015625)"/>
      <path id="DejaVuSans-Bold-56" d="M 3272 3391
L 3272 2541
Q 2913 2691 2578 2766
Q 2244 2841 1947 2841
Q 1628 2841 1473 2761
Q 1319 2681 1319 2516
Q 1319 2381 1436 2309
Q 1553 2238 1856 2203
L 2053 2175
Q 2913 2066 3209 1816
Q 3506 1566 3506 1031
Q 3506 472 3093 190
Q 2681 -91 1863 -91
Q 1516 -91 1145 -36
Q 775 19 384 128
L 384 978
Q 719 816 1070 734
Q 1422 653 1784 653
Q 2113 653 2278 743
Q 2444 834 2444 1013
Q 2444 1163 2330 1236
Q 2216 1309 1875 1350
L 1678 1375
Q 931 1469 631 1722
Q 331 1975 331 2491
Q 331 3047 712 3315
Q 1094 3584 1881 3584
Q 2191 3584 2531 3537
Q 2872 3491 3272 3391
z
" transform="scale(0.015625)"/>
      <path id="DejaVuSans-Bold-4b" d="M 4056 2131
L 4056 0
L 2931 0
L 2931 347
L 2931 1625
Q 2931 2084 2911 2256
Q 2891 2428 2841 2509
Q 2775 2619 2662 2680
Q 2550 2741 2406 2741
Q 2056 2741 1856 2470
Q 1656 2200 1656 1722
L 1656 0
L 538 0
L 538 4863
L 1656 4863
L 1656 2988
Q 1909 3294 2193 3439
Q 2478 3584 2822 3584
Q 3428 3584 3742 3212
Q 4056 2841 4056 2131
z
" transform="scale(0.015625)"/>
      <path id="DejaVuSans-Bold-48" d="M 4031 1759
L 4031 1441
L 1416 1441
Q 1456 1047 1700 850
Q 1944 653 2381 653
Q 2734 653 3104 758
Q 3475 863 3866 1075
L 3866 213
Q 3469 63 3072 -14
Q 2675 -91 2278 -91
Q 1328 -91 801 392
Q 275 875 275 1747
Q 275 2603 792 3093
Q 1309 3584 2216 3584
Q 3041 3584 3536 3087
Q 4031 2591 4031 1759
z
M 2881 2131
Q 2881 2450 2695 2645
Q 2509 2841 2209 2841
Q 1884 2841 1681 2658
Q 1478 2475 1428 2131
L 2881 2131
z
" transform="scale(0.015625)"/>
      <path id="DejaVuSans-Bold-47" d="M 2919 2988
L 2919 4863
L 4044 4863
L 4044 0
L 2919 0
L 2919 506
Q 2688 197 2409 53
Q 2131 -91 1766 -91
Q 1119 -91 703 423
Q 288 938 288 1747
Q 288 2556 703 3070
Q 1119 3584 1766 3584
Q 2128 3584 2408 3439
Q 2688 3294 2919 2988
z
M 2181 722
Q 2541 722 2730 984
Q 2919 1247 2919 1747
Q 2919 2247 2730 2509
Q 2541 2772 2181 2772
Q 1825 2772 1636 2509
Q 1447 2247 1447 1747
Q 1447 1247 1636 984
Q 1825 722 2181 722
z
" transform="scale(0.015625)"/>
      <path id="DejaVuSans-Bold-4c" d="M 538 3500
L 1656 3500
L 1656 0
L 538 0
L 538 3500
z
M 538 4863
L 1656 4863
L 1656 3950
L 538 3950
L 538 4863
z
" transform="scale(0.015625)"/>
      <path id="DejaVuSans-Bold-51" d="M 4056 2131
L 4056 0
L 2931 0
L 2931 347
L 2931 1631
Q 2931 2084 2911 2256
Q 2891 2428 2841 2509
Q 2775 2619 2662 2680
Q 2550 2741 2406 2741
Q 2056 2741 1856 2470
Q 1656 2200 1656 1722
L 1656 0
L 538 0
L 538 3500
L 1656 3500
L 1656 2988
Q 1909 3294 2193 3439
Q 2478 3584 2822 3584
Q 3428 3584 3742 3212
Q 4056 2841 4056 2131
z
" transform="scale(0.015625)"/>
      <path id="DejaVuSans-Bold-4a" d="M 2919 594
Q 2688 288 2409 144
Q 2131 0 1766 0
Q 1125 0 706 504
Q 288 1009 288 1791
Q 288 2575 706 3076
Q 1125 3578 1766 3578
Q 2131 3578 2409 3434
Q 2688 3291 2919 2981
L 2919 3500
L 4044 3500
L 4044 353
Q 4044 -491 3511 -936
Q 2978 -1381 1966 -1381
Q 1638 -1381 1331 -1331
Q 1025 -1281 716 -1178
L 716 -306
Q 1009 -475 1290 -558
Q 1572 -641 1856 -641
Q 2406 -641 2662 -400
Q 2919 -159 2919 353
L 2919 594
z
M 2181 2772
Q 1834 2772 1640 2515
Q 1447 2259 1447 1791
Q 1447 1309 1634 1061
Q 1822 813 2181 813
Q 2531 813 2725 1069
Q 2919 1325 2919 1791
Q 2919 2259 2725 2515
Q 2531 2772 2181 2772
z
" transform="scale(0.015625)"/>
      <path id="DejaVuSans-Bold-1d" d="M 716 3500
L 1844 3500
L 1844 2291
L 716 2291
L 716 3500
z
M 716 1209
L 1844 1209
L 1844 0
L 716 0
L 716 1209
z
" transform="scale(0.015625)"/>
      <path id="DejaVuSans-Bold-9ab" d="M 3419 850
L 1538 850
L 1241 0
L 31 0
L 1759 4666
L 3194 4666
L 4922 0
L 3713 0
L 3419 850
z
M 1838 1716
L 3116 1716
L 2478 3572
L 1838 1716
z
M 1476 5819
L 1923 5819
Q 1988 5628 2138 5534
Q 2288 5441 2526 5441
Q 2763 5441 2913 5534
Q 3063 5628 3129 5819
L 3576 5819
Q 3526 5416 3257 5205
Q 2988 4994 2526 4994
Q 2063 4994 1794 5205
Q 1526 5416 1476 5819
z
M 2822 6766
L 3707 6766
L 2816 5941
L 2204 5941
L 2822 6766
z
" transform="scale(0.015625)"/>
     </defs>
     <use xlink:href="#DejaVuSans-Bold-24"/>
     <use xlink:href="#DejaVuSans-Bold-58" transform="translate(77.390625 0)"/>
     <use xlink:href="#DejaVuSans-Bold-57" transform="translate(148.578125 0)"/>
     <use xlink:href="#DejaVuSans-Bold-52" transform="translate(196.375 0)"/>
     <use xlink:href="#DejaVuSans-Bold-10" transform="translate(265.078125 0)"/>
     <use xlink:href="#DejaVuSans-Bold-56" transform="translate(306.578125 0)"/>
     <use xlink:href="#DejaVuSans-Bold-4b" transform="translate(366.09375 0)"/>
     <use xlink:href="#DejaVuSans-Bold-48" transform="translate(437.28125 0)"/>
     <use xlink:href="#DejaVuSans-Bold-47" transform="translate(505.109375 0)"/>
     <use xlink:href="#DejaVuSans-Bold-47" transform="translate(576.6875 0)"/>
     <use xlink:href="#DejaVuSans-Bold-4c" transform="translate(648.265625 0)"/>
     <use xlink:href="#DejaVuSans-Bold-51" transform="translate(682.546875 0)"/>
     <use xlink:href="#DejaVuSans-Bold-4a" transform="translate(753.734375 0)"/>
     <use xlink:href="#DejaVuSans-Bold-1d" transform="translate(825.3125 0)"/>
     <use xlink:href="#DejaVuSans-Bold-3" transform="translate(865.296875 0)"/>
     <use xlink:href="#DejaVuSans-Bold-37" transform="translate(900.109375 0)"/>
     <use xlink:href="#DejaVuSans-Bold-9ab" transform="translate(968.328125 0)"/>
     <use xlink:href="#DejaVuSans-Bold-37" transform="translate(1045.71875 0)"/>
    </g>
    <!-- mặc định an toàn -->
    <g style="fill: #e15759" transform="translate(574.085025 340.217306) scale(0.08 -0.08)">
     <defs>
      <path id="DejaVuSans-Bold-50" d="M 3781 2919
Q 3994 3244 4286 3414
Q 4578 3584 4928 3584
Q 5531 3584 5847 3212
Q 6163 2841 6163 2131
L 6163 0
L 5038 0
L 5038 1825
Q 5041 1866 5042 1909
Q 5044 1953 5044 2034
Q 5044 2406 4934 2573
Q 4825 2741 4581 2741
Q 4263 2741 4089 2478
Q 3916 2216 3909 1719
L 3909 0
L 2784 0
L 2784 1825
Q 2784 2406 2684 2573
Q 2584 2741 2328 2741
Q 2006 2741 1831 2477
Q 1656 2213 1656 1722
L 1656 0
L 531 0
L 531 3500
L 1656 3500
L 1656 2988
Q 1863 3284 2130 3434
Q 2397 3584 2719 3584
Q 3081 3584 3359 3409
Q 3638 3234 3781 2919
z
" transform="scale(0.015625)"/>
      <path id="DejaVuSans-Bold-9b4" d="M 1231 4991
L 1678 4991
Q 1712 4772 1867 4656
Q 2022 4541 2281 4541
Q 2540 4541 2695 4656
Q 2850 4772 2884 4991
L 3331 4991
Q 3312 4541 3040 4302
Q 2769 4063 2281 4063
Q 1794 4063 1522 4302
Q 1250 4541 1231 4991
z
M 2106 1575
Q 1756 1575 1579 1456
Q 1403 1338 1403 1106
Q 1403 894 1545 773
Q 1688 653 1941 653
Q 2256 653 2472 879
Q 2688 1106 2688 1447
L 2688 1575
L 2106 1575
z
M 3816 1997
L 3816 0
L 2688 0
L 2688 519
Q 2463 200 2181 54
Q 1900 -91 1497 -91
Q 953 -91 614 226
Q 275 544 275 1050
Q 275 1666 698 1953
Q 1122 2241 2028 2241
L 2688 2241
L 2688 2328
Q 2688 2594 2478 2717
Q 2269 2841 1825 2841
Q 1466 2841 1156 2769
Q 847 2697 581 2553
L 581 3406
Q 941 3494 1303 3539
Q 1666 3584 2028 3584
Q 2975 3584 3395 3211
Q 3816 2838 3816 1997
z
M 1356 -447
L 2475 -447
L 2475 -1359
L 1356 -1359
L 1356 -447
z
" transform="scale(0.015625)"/>
      <path id="DejaVuSans-Bold-46" d="M 3366 3391
L 3366 2478
Q 3138 2634 2908 2709
Q 2678 2784 2431 2784
Q 1963 2784 1702 2511
Q 1441 2238 1441 1747
Q 1441 1256 1702 982
Q 1963 709 2431 709
Q 2694 709 2930 787
Q 3166 866 3366 1019
L 3366 103
Q 3103 6 2833 -42
Q 2563 -91 2291 -91
Q 1344 -91 809 395
Q 275 881 275 1747
Q 275 2613 809 3098
Q 1344 3584 2291 3584
Q 2566 3584 2833 3536
Q 3100 3488 3366 3391
z
" transform="scale(0.015625)"/>
      <path id="DejaVuSans-Bold-d3" d="M 2919 2988
L 2919 3866
L 1900 3866
L 1900 4506
L 2919 4506
L 2919 4863
L 4044 4863
L 4044 4506
L 4525 4506
L 4525 3866
L 4044 3866
L 4044 0
L 2919 0
L 2919 506
Q 2688 197 2409 53
Q 2131 -91 1766 -91
Q 1119 -91 703 423
Q 288 938 288 1747
Q 288 2556 703 3070
Q 1119 3584 1766 3584
Q 2128 3584 2408 3439
Q 2688 3294 2919 2988
z
M 2181 722
Q 2541 722 2730 984
Q 2919 1247 2919 1747
Q 2919 2247 2730 2509
Q 2541 2772 2181 2772
Q 1825 2772 1636 2509
Q 1447 2247 1447 1747
Q 1447 1247 1636 984
Q 1825 722 2181 722
z
" transform="scale(0.015625)"/>
      <path id="DejaVuSans-Bold-9c8" d="M 531 -447
L 1650 -447
L 1650 -1359
L 531 -1359
L 531 -447
z
M 538 3500
L 1656 3500
L 1656 0
L 538 0
L 538 3500
z
M 538 4863
L 1656 4863
L 1656 3950
L 538 3950
L 538 4863
z
" transform="scale(0.015625)"/>
      <path id="DejaVuSans-Bold-44" d="M 2106 1575
Q 1756 1575 1579 1456
Q 1403 1338 1403 1106
Q 1403 894 1545 773
Q 1688 653 1941 653
Q 2256 653 2472 879
Q 2688 1106 2688 1447
L 2688 1575
L 2106 1575
z
M 3816 1997
L 3816 0
L 2688 0
L 2688 519
Q 2463 200 2181 54
Q 1900 -91 1497 -91
Q 953 -91 614 226
Q 275 544 275 1050
Q 275 1666 698 1953
Q 1122 2241 2028 2241
L 2688 2241
L 2688 2328
Q 2688 2594 2478 2717
Q 2269 2841 1825 2841
Q 1466 2841 1156 2769
Q 847 2697 581 2553
L 581 3406
Q 941 3494 1303 3539
Q 1666 3584 2028 3584
Q 2975 3584 3395 3211
Q 3816 2838 3816 1997
z
" transform="scale(0.015625)"/>
      <path id="DejaVuSans-Bold-a2" d="M 2106 1575
Q 1756 1575 1579 1456
Q 1403 1338 1403 1106
Q 1403 894 1545 773
Q 1688 653 1941 653
Q 2256 653 2472 879
Q 2688 1106 2688 1447
L 2688 1575
L 2106 1575
z
M 3816 1997
L 3816 0
L 2688 0
L 2688 519
Q 2463 200 2181 54
Q 1900 -91 1497 -91
Q 953 -91 614 226
Q 275 544 275 1050
Q 275 1666 698 1953
Q 1122 2241 2028 2241
L 2688 2241
L 2688 2328
Q 2688 2594 2478 2717
Q 2269 2841 1825 2841
Q 1466 2841 1156 2769
Q 847 2697 581 2553
L 581 3406
Q 941 3494 1303 3539
Q 1666 3584 2028 3584
Q 2975 3584 3395 3211
Q 3816 2838 3816 1997
z
M 1759 5119
L 2640 3944
L 2028 3944
L 875 5119
L 1759 5119
z
" transform="scale(0.015625)"/>
     </defs>
     <use xlink:href="#DejaVuSans-Bold-50"/>
     <use xlink:href="#DejaVuSans-Bold-9b4" transform="translate(104.203125 0)"/>
     <use xlink:href="#DejaVuSans-Bold-46" transform="translate(171.6875 0)"/>
     <use xlink:href="#DejaVuSans-Bold-3" transform="translate(230.96875 0)"/>
     <use xlink:href="#DejaVuSans-Bold-d3" transform="translate(265.78125 0)"/>
     <use xlink:href="#DejaVuSans-Bold-9c8" transform="translate(337.359375 0)"/>
     <use xlink:href="#DejaVuSans-Bold-51" transform="translate(371.640625 0)"/>
     <use xlink:href="#DejaVuSans-Bold-4b" transform="translate(442.828125 0)"/>
     <use xlink:href="#DejaVuSans-Bold-3" transform="translate(514.015625 0)"/>
     <use xlink:href="#DejaVuSans-Bold-44" transform="translate(548.828125 0)"/>
     <use xlink:href="#DejaVuSans-Bold-51" transform="translate(616.3125 0)"/>
     <use xlink:href="#DejaVuSans-Bold-3" transform="translate(687.5 0)"/>
     <use xlink:href="#DejaVuSans-Bold-57" transform="translate(722.3125 0)"/>
     <use xlink:href="#DejaVuSans-Bold-52" transform="translate(770.109375 0)"/>
     <use xlink:href="#DejaVuSans-Bold-a2" transform="translate(838.8125 0)"/>
     <use xlink:href="#DejaVuSans-Bold-51" transform="translate(906.296875 0)"/>
    </g>
   </g>
  </g>
 </g>
 <defs>
  <clipPath id="p6c88c5106f">
   <rect x="7.2" y="7.2" width="700.56" height="354.96"/>
  </clipPath>
 </defs>
</svg>
